<svg width="34" height="34" viewBox="0 0 34 34" fill="none" xmlns="http://www.w3.org/2000/svg">
<path d="M34 1.87567C34 0.840556 33.1594 0 32.1243 0H1.87567C0.840557 0 0 0.840556 0 1.87567V32.1243C0.000499725 32.6216 0.198277 33.0984 0.549923 33.4501C0.901573 33.8017 1.37836 33.9995 1.87567 34H32.1243C32.6218 34 33.0989 33.8024 33.4506 33.4506C33.8024 33.0989 34 32.6218 34 32.1243V1.87567ZM19.6029 10.2283C19.7166 10.1525 19.8487 10.1089 19.9852 10.1022C20.1217 10.0955 20.2574 10.1259 20.378 10.1903C20.4986 10.2546 20.5994 10.3505 20.6698 10.4676C20.7402 10.5848 20.7775 10.7188 20.7778 10.8554V23.1446C20.7775 23.2812 20.7402 23.4152 20.6698 23.5324C20.5994 23.6495 20.4986 23.7454 20.378 23.8097C20.2574 23.8741 20.1217 23.9045 19.9852 23.8978C19.8487 23.8911 19.7166 23.8475 19.6029 23.7717L10.387 17.629C10.2834 17.56 10.1984 17.4665 10.1396 17.3568C10.0808 17.247 10.05 17.1245 10.05 17C10.05 16.8755 10.0808 16.7529 10.1396 16.6432C10.1984 16.5335 10.2834 16.44 10.387 16.371L19.6029 10.2283Z" fill="url(#paint0_linear_46_1868)"/>
<defs>
<linearGradient id="paint0_linear_46_1868" x1="34" y1="0" x2="-1.02394" y2="1.0897" gradientUnits="userSpaceOnUse">
<stop stop-color="#5943EA"/>
<stop offset="1" stop-color="#05BBF8"/>
</linearGradient>
</defs>
</svg>
