<svg width="34" height="34" viewBox="0 0 34 34" fill="none" xmlns="http://www.w3.org/2000/svg">
<path d="M0 1.87567C0 0.840556 0.840556 0 1.87567 0H32.1243C33.1594 0 34 0.840556 34 1.87567V32.1243C33.9995 32.6216 33.8017 33.0984 33.4501 33.4501C33.0984 33.8017 32.6216 33.9995 32.1243 34H1.87567C1.37821 34 0.901126 33.8024 0.54937 33.4506C0.197614 33.0989 0 32.6218 0 32.1243V1.87567ZM14.3971 10.2283C14.2834 10.1525 14.1513 10.1089 14.0148 10.1022C13.8783 10.0955 13.7426 10.1259 13.622 10.1903C13.5014 10.2546 13.4006 10.3505 13.3302 10.4676C13.2598 10.5848 13.2225 10.7188 13.2222 10.8554V23.1446C13.2225 23.2812 13.2598 23.4152 13.3302 23.5324C13.4006 23.6495 13.5014 23.7454 13.622 23.8097C13.7426 23.8741 13.8783 23.9045 14.0148 23.8978C14.1513 23.8911 14.2834 23.8475 14.3971 23.7717L23.613 17.629C23.7166 17.56 23.8016 17.4665 23.8604 17.3568C23.9192 17.247 23.95 17.1245 23.95 17C23.95 16.8755 23.9192 16.7529 23.8604 16.6432C23.8016 16.5335 23.7166 16.44 23.613 16.371L14.3971 10.2283Z" fill="url(#paint0_linear_46_1870)"/>
<defs>
<linearGradient id="paint0_linear_46_1870" x1="0" y1="0" x2="35.0239" y2="1.0897" gradientUnits="userSpaceOnUse">
<stop stop-color="#5943EA"/>
<stop offset="1" stop-color="#05BBF8"/>
</linearGradient>
</defs>
</svg>
