<svg width="60" height="60" viewBox="0 0 60 60" fill="none" xmlns="http://www.w3.org/2000/svg">
<g clip-path="url(#clip0_10140_1853)">
<path opacity="0.5" d="M35.4384 44.2687C35.4384 45.2375 34.653 46.023 33.6841 46.023H26.1987C25.2298 46.023 24.4443 45.2375 24.4443 44.2687V40.9938C23.8726 40.9938 25.5946 41.3494 2.92383 36.1426V50.5844C2.92383 53.6156 5.38979 56.0815 8.4209 56.0815H51.4618C54.493 56.0815 56.9589 53.6156 56.9589 50.5844V36.1499L35.4384 40.7005V44.2687Z" fill="#E4EBFC"/>
<path d="M56.2573 13.1582H3.74269C1.67567 13.1582 0 14.8339 0 16.9009V29.0774C0 30.7126 1.12959 32.1311 2.72339 32.4972L24.4444 37.4857V33.0412C24.4444 32.0724 25.2299 31.2869 26.1988 31.2869H33.6842C34.6531 31.2869 35.4386 32.0724 35.4386 33.0412V37.1147L57.2766 32.4972C58.8704 32.1311 60 30.7126 60 29.0774V16.9009C60 14.8339 58.3243 13.1582 56.2573 13.1582Z" fill="#3D6DF1"/>
<path d="M27.9531 34.7949H31.9297V42.5142H27.9531V34.7949Z" fill="#3D5539"/>
<path d="M25.146 7.42674H34.7366V9.64896H38.2454V5.67235C38.2454 4.70347 37.4599 3.91797 36.491 3.91797H23.3916C22.4227 3.91797 21.6372 4.70347 21.6372 5.67235V9.64896H25.146V7.42674Z" fill="#3D6DF1"/>
</g>
<defs>
<clipPath id="clip0_10140_1853">
<rect width="60" height="60" fill="white"/>
</clipPath>
</defs>
</svg>
