<svg width="16" height="16" viewBox="0 0 16 16" fill="none" xmlns="http://www.w3.org/2000/svg">
<path d="M11.8 15.3333C11.0467 15.3333 10.2533 15.1533 9.43333 14.8067C8.63333 14.4667 7.82667 14 7.04 13.4333C6.26 12.86 5.50667 12.22 4.79333 11.52C4.08667 10.8067 3.44667 10.0533 2.88 9.28C2.30667 8.48 1.84667 7.68 1.52 6.90667C1.17333 6.08 1 5.28 1 4.52667C1 4.00667 1.09333 3.51333 1.27333 3.05333C1.46 2.58 1.76 2.14 2.16667 1.76C2.68 1.25333 3.26667 1 3.89333 1C4.15333 1 4.42 1.06 4.64667 1.16667C4.90667 1.28667 5.12667 1.46667 5.28667 1.70667L6.83333 3.88667C6.97333 4.08 7.08 4.26667 7.15333 4.45333C7.24 4.65333 7.28667 4.85333 7.28667 5.04667C7.28667 5.3 7.21333 5.54667 7.07333 5.78C6.97333 5.96 6.82 6.15333 6.62667 6.34667L6.17333 6.82C6.18 6.84 6.18667 6.85333 6.19333 6.86667C6.27333 7.00667 6.43333 7.24667 6.74 7.60667C7.06667 7.98 7.37333 8.32 7.68 8.63333C8.07333 9.02 8.4 9.32667 8.70667 9.58C9.08667 9.9 9.33333 10.06 9.48 10.1333L9.46667 10.1667L9.95333 9.68667C10.16 9.48 10.36 9.32667 10.5533 9.22667C10.92 9 11.3867 8.96 11.8533 9.15333C12.0267 9.22667 12.2133 9.32667 12.4133 9.46667L14.6267 11.04C14.8733 11.2067 15.0533 11.42 15.16 11.6733C15.26 11.9267 15.3067 12.16 15.3067 12.3933C15.3067 12.7133 15.2333 13.0333 15.0933 13.3333C14.9533 13.6333 14.78 13.8933 14.56 14.1333C14.18 14.5533 13.7667 14.8533 13.2867 15.0467C12.8267 15.2333 12.3267 15.3333 11.8 15.3333ZM3.89333 2C3.52667 2 3.18667 2.16 2.86 2.48C2.55333 2.76667 2.34 3.08 2.20667 3.42C2.06667 3.76667 2 4.13333 2 4.52667C2 5.14667 2.14667 5.82 2.44 6.51333C2.74 7.22 3.16 7.95333 3.69333 8.68667C4.22667 9.42 4.83333 10.1333 5.5 10.8067C6.16667 11.4667 6.88667 12.08 7.62667 12.62C8.34667 13.1467 9.08667 13.5733 9.82 13.88C10.96 14.3667 12.0267 14.48 12.9067 14.1133C13.2467 13.9733 13.5467 13.76 13.82 13.4533C13.9733 13.2867 14.0933 13.1067 14.1933 12.8933C14.2733 12.7267 14.3133 12.5533 14.3133 12.38C14.3133 12.2733 14.2933 12.1667 14.24 12.0467C14.22 12.0067 14.18 11.9333 14.0533 11.8467L11.84 10.2733C11.7067 10.18 11.5867 10.1133 11.4733 10.0667C11.3267 10.0067 11.2667 9.94667 11.04 10.0867C10.9067 10.1533 10.7867 10.2533 10.6533 10.3867L10.1467 10.8867C9.88667 11.14 9.48667 11.2 9.18 11.0867L9 11.0067C8.72667 10.86 8.40667 10.6333 8.05333 10.3333C7.73333 10.06 7.38667 9.74 6.96667 9.32667C6.64 8.99333 6.31333 8.64 5.97333 8.24667C5.66 7.88 5.43333 7.56667 5.29333 7.30667L5.21333 7.10667C5.17333 6.95333 5.16 6.86667 5.16 6.77333C5.16 6.53333 5.24667 6.32 5.41333 6.15333L5.91333 5.63333C6.04667 5.5 6.14667 5.37333 6.21333 5.26C6.26667 5.17333 6.28667 5.1 6.28667 5.03333C6.28667 4.98 6.26667 4.9 6.23333 4.82C6.18667 4.71333 6.11333 4.59333 6.02 4.46667L4.47333 2.28C4.40667 2.18667 4.32667 2.12 4.22667 2.07333C4.12 2.02667 4.00667 2 3.89333 2ZM9.46667 10.1733L9.36 10.6267L9.54 10.16C9.50667 10.1533 9.48 10.16 9.46667 10.1733Z" fill="url(#paint0_linear_46_2337)"/>
<defs>
<linearGradient id="paint0_linear_46_2337" x1="1" y1="1" x2="15.7376" y2="1.45768" gradientUnits="userSpaceOnUse">
<stop stop-color="#5943EA"/>
<stop offset="1" stop-color="#05BBF8"/>
</linearGradient>
</defs>
</svg>
