<svg width="20" height="20" viewBox="0 0 20 20" fill="none" xmlns="http://www.w3.org/2000/svg">
<g clip-path="url(#clip0_10037_5980)">
<path d="M10 0C9.67606 0 9.41406 0.262146 9.41406 0.585936C9.41406 0.909727 9.67606 1.17187 10 1.17187C14.8463 1.17187 18.8278 5.11428 18.8278 9.96061C18.8278 10.2846 19.0899 10.5466 19.4137 10.5466C19.7375 10.5466 19.9997 10.2846 19.9997 9.96061C19.9997 4.46822 15.4924 0 10 0Z" fill="#3D6DF1"/>
<path d="M17.07 10.5466C17.3939 10.5466 17.6559 10.2846 17.6559 9.96062C17.6559 5.7608 14.1998 2.34375 10 2.34375C9.67606 2.34375 9.41406 2.60574 9.41406 2.92969C9.41406 3.25348 9.67606 3.51547 10 3.51547C13.5538 3.51547 16.4841 6.40685 16.4841 9.96062C16.4841 10.2846 16.7462 10.5466 17.07 10.5466Z" fill="#3D6DF1"/>
<path d="M10 4.6875C9.67606 4.6875 9.41406 4.94965 9.41406 5.27344C9.41406 5.59738 9.67606 5.85937 10 5.85937C12.2612 5.85937 14.1405 7.69958 14.1405 9.96078C14.1405 10.2847 14.4025 10.5467 14.7264 10.5467C15.0502 10.5467 15.3123 10.2847 15.3123 9.96078C15.3123 7.05291 12.9079 4.6875 10 4.6875Z" fill="#3D6DF1"/>
<path d="M7.02662 5.3923C7.19951 5.22064 7.24803 4.96033 7.14961 4.73831L5.21434 0.348365C5.09822 0.0857613 4.80983 -0.0538563 4.52953 0.0193858L1.078 1.04706C0.700341 1.14213 0.389062 1.37955 0.200922 1.71433C-0.0171262 2.10282 -0.0600033 2.59201 0.0835816 3.05603C2.34295 10.3937 9.24052 17.5454 16.9422 19.9153C17.8126 20.1861 18.7309 19.7949 18.9523 18.9219L19.9795 15.4814C20.0538 15.2034 19.9148 14.9121 19.6516 14.7954L15.2635 12.8906C15.0421 12.791 14.7782 12.8409 14.6066 13.0159C13.7545 13.8862 13.1178 14.5207 12.9032 14.713V14.7124C10.6275 13.2222 6.8188 9.42367 5.28652 7.09625C5.55888 6.80847 6.54491 5.86899 7.02662 5.3923Z" fill="#3D6DF1"/>
</g>
<defs>
<clipPath id="clip0_10037_5980">
<rect width="20" height="20" fill="white"/>
</clipPath>
</defs>
</svg>
