<svg width="20" height="20" viewBox="0 0 20 20" fill="none" xmlns="http://www.w3.org/2000/svg">
<g clip-path="url(#clip0_10232_38)">
<path d="M15 2.5C16.3807 2.5 17.5 3.61928 17.5 5H18.75C19.0952 5 19.375 5.27981 19.375 5.625C19.375 5.97019 19.0952 6.25 18.75 6.25H17.5V8.125H16.25V5C16.25 4.30966 15.6903 3.75 15 3.75H5C4.30966 3.75 3.75 4.30966 3.75 5V15C3.75 15.6903 4.30966 16.25 5 16.25H10.625V18.75C10.625 19.0952 10.3452 19.375 10 19.375C9.65481 19.375 9.375 19.0952 9.375 18.75V17.5H6.25V18.75C6.25 19.0952 5.97019 19.375 5.625 19.375C5.27981 19.375 5 19.0952 5 18.75V17.5C3.61928 17.5 2.5 16.3807 2.5 15H1.25C0.904822 15 0.625 14.7202 0.625 14.375C0.625 14.0298 0.904822 13.75 1.25 13.75H2.5V10.625H1.25C0.904822 10.625 0.625 10.3452 0.625 10C0.625 9.65481 0.904822 9.375 1.25 9.375H2.5V6.25H1.25C0.904822 6.25 0.625 5.97019 0.625 5.625C0.625 5.27981 0.904822 5 1.25 5H2.5C2.5 3.61928 3.61928 2.5 5 2.5V1.25C5 0.904822 5.27981 0.625 5.625 0.625C5.97019 0.625 6.25 0.904822 6.25 1.25V2.5H9.375V1.25C9.375 0.904822 9.65481 0.625 10 0.625C10.3452 0.625 10.625 0.904822 10.625 1.25V2.5H13.75V1.25C13.75 0.904822 14.0298 0.625 14.375 0.625C14.7202 0.625 15 0.904822 15 1.25V2.5Z" fill="#989C9F"/>
<path d="M11.875 17.5H13.75V18.75C13.75 19.0952 14.0298 19.375 14.375 19.375C14.7202 19.375 15 19.0952 15 18.75V17.5C16.3807 17.5 17.5 16.3807 17.5 15H18.75C19.0952 15 19.375 14.7202 19.375 14.375C19.375 14.0298 19.0952 13.75 18.75 13.75H17.5V10.625H18.75C19.0952 10.625 19.375 10.3452 19.375 10C19.375 9.65481 19.0952 9.375 18.75 9.375H16.25V15C16.25 15.6903 15.6903 16.25 15 16.25H11.875V17.5Z" fill="#C4CCC3"/>
</g>
<defs>
<clipPath id="clip0_10232_38">
<rect width="20" height="20" fill="white"/>
</clipPath>
</defs>
</svg>
