<svg width="61" height="60" viewBox="0 0 61 60" fill="none" xmlns="http://www.w3.org/2000/svg">
<g clip-path="url(#clip0_46_2264)">
<path d="M20.8724 48.8672C20.8724 51.1324 22.7088 52.9688 24.974 52.9688H36.6927C38.958 52.9688 40.7943 51.1324 40.7943 48.8672V46.875H20.8724V48.8672Z" fill="#BEE0F4"/>
<path d="M27.9037 60H33.7631C35.7047 60 37.2787 58.4261 37.2787 56.4844H24.3881C24.3881 58.4261 25.962 60 27.9037 60Z" fill="white"/>
<path d="M59.0756 18.75H55.5599C54.5892 18.75 53.8021 19.537 53.8021 20.5078C53.8021 21.4786 54.5892 22.2656 55.5599 22.2656H59.0756C60.0463 22.2656 60.8334 21.4786 60.8334 20.5078C60.8334 19.537 60.0463 18.75 59.0756 18.75Z" fill="#BEE0F4"/>
<path d="M52.866 11.426C53.3514 12.2667 54.4265 12.5548 55.2672 12.0694L58.3119 10.3116C59.1526 9.82618 59.4406 8.7511 58.9552 7.9104C58.4698 7.0697 57.3947 6.78165 56.554 7.26704L53.5094 9.02485C52.6687 9.51024 52.3806 10.5853 52.866 11.426Z" fill="#BEE0F4"/>
<path d="M58.3119 30.7045L55.2672 28.9467C54.4265 28.4613 53.3514 28.7494 52.866 29.5901C52.3806 30.4308 52.6687 31.5059 53.5094 31.9913L56.554 33.7491C57.3947 34.2345 58.4698 33.9464 58.9552 33.1057C59.4406 32.265 59.1526 31.1899 58.3119 30.7045Z" fill="#BEE0F4"/>
<path d="M6.10681 22.2656C7.07759 22.2656 7.86462 21.4786 7.86462 20.5078C7.86462 19.537 7.07759 18.75 6.10681 18.75H2.59119C1.62041 18.75 0.833374 19.537 0.833374 20.5078C0.833374 21.4786 1.62041 22.2656 2.59119 22.2656H6.10681Z" fill="#BEE0F4"/>
<path d="M8.15756 9.02461L5.11291 7.2668C4.27221 6.78141 3.19713 7.06945 2.71174 7.91016C2.22635 8.75086 2.5144 9.82594 3.3551 10.3113L6.39975 12.0691C7.24045 12.5545 8.31553 12.2665 8.80092 11.4258C9.28631 10.5851 8.99827 9.51 8.15756 9.02461Z" fill="#BEE0F4"/>
<path d="M8.80092 29.5901C8.31553 28.7494 7.24045 28.4613 6.39975 28.9467L3.3551 30.7045C2.5144 31.1899 2.22635 32.265 2.71174 33.1057C3.19713 33.9464 4.27221 34.2345 5.11291 33.7491L8.15756 31.9913C8.99827 31.5059 9.28631 30.4308 8.80092 29.5901Z" fill="#BEE0F4"/>
<path d="M30.8334 22.2656C31.8042 22.2656 32.5912 21.4786 32.5912 20.5078C32.5912 19.537 31.8042 18.75 30.8334 18.75C29.8626 18.75 29.0756 19.537 29.0756 20.5078C29.0756 21.4786 29.8626 22.2656 30.8334 22.2656Z" fill="white"/>
<path d="M39.0824 17.2661L40.0881 16.6165L38.8306 14.4383L37.7612 14.9864C37.1235 15.3134 36.351 15.2203 35.8091 14.7512C35.0786 14.1189 34.2442 13.6371 33.3292 13.3193C32.6526 13.0843 32.1861 12.4621 32.1503 11.7466L32.0903 10.5469H29.5752L29.5152 11.7465C29.4795 12.462 29.0131 13.0842 28.3363 13.3192C27.4214 13.637 26.587 14.1187 25.8564 14.7511C25.3144 15.2201 24.5421 15.3131 23.9043 14.9862L22.8351 14.4381L21.5775 16.6163L22.5832 17.2658C23.1845 17.6543 23.4901 18.3686 23.3561 19.0718C23.2628 19.5604 23.2156 20.0434 23.2156 20.5078C23.2156 20.9722 23.2628 21.4553 23.356 21.9436C23.4901 22.6467 23.1844 23.3611 22.5831 23.7496L21.5775 24.3991L22.8351 26.5773L23.9043 26.0293C24.542 25.7024 25.3144 25.7953 25.8564 26.2644C26.5872 26.8968 27.4215 27.3786 28.3363 27.6963C29.0131 27.9313 29.4795 28.5536 29.5152 29.269L29.5752 30.4688H32.0903L32.1503 29.2691C32.1861 28.5537 32.6524 27.9314 33.3292 27.6964C34.244 27.3787 35.0783 26.8969 35.8091 26.2645C36.3511 25.7955 37.1233 25.7025 37.7612 26.0295L38.8306 26.5774L40.0881 24.3993L39.0825 23.7497C38.4812 23.3613 38.1756 22.6471 38.3097 21.9439C38.4027 21.4553 38.4499 20.9721 38.4499 20.5078C38.4499 20.0435 38.4027 19.5604 38.3095 19.0718C38.1755 18.3687 38.4812 17.6544 39.0824 17.2661ZM30.8327 25.7812C27.925 25.7812 25.5593 23.4156 25.5593 20.5078C25.5593 17.6 27.925 15.2344 30.8327 15.2344C33.7405 15.2344 36.1062 17.6 36.1062 20.5078C36.1062 23.4156 33.7405 25.7812 30.8327 25.7812Z" fill="#BEE0F4"/>
<path d="M30.8334 0C19.5254 0 10.3256 9.1998 10.3256 20.5078C10.3256 26.3666 12.8454 31.9575 17.2392 35.8468C19.4023 37.7618 20.7011 40.4734 20.8566 43.3594H40.8101C40.9656 40.4734 42.2644 37.7618 44.4276 35.8468C48.8213 31.9575 51.3412 26.3666 51.3412 20.5078C51.3412 9.1998 42.1414 0 30.8334 0ZM41.9662 20.5078C41.9662 20.8028 41.9535 21.1015 41.9283 21.4023L43.4008 22.3535C44.1876 22.8618 44.4377 23.8977 43.9693 24.709L41.0396 29.7833C40.5713 30.5944 39.5492 30.896 38.7155 30.4688L37.1504 29.6666C36.6603 30.0052 36.1449 30.3027 35.6065 30.558L35.5186 32.3145C35.4719 33.2498 34.6997 33.9844 33.7631 33.9844H27.9037C26.967 33.9844 26.1949 33.2498 26.1481 32.3143L26.0603 30.5579C25.5219 30.3026 25.0065 30.005 24.5164 29.6665L22.9513 30.4686C22.1176 30.8959 21.0956 30.5944 20.6273 29.7832L17.6976 24.7089C17.2292 23.8977 17.4793 22.8616 18.2661 22.3534L19.7384 21.4022C19.7132 21.1015 19.7006 20.8029 19.7006 20.5078C19.7006 20.2127 19.7132 19.9141 19.7384 19.6133L18.266 18.6621C17.4792 18.1539 17.2292 17.1179 17.6975 16.3066L20.6272 11.2323C21.0956 10.4211 22.118 10.1197 22.9512 10.5469L24.5163 11.349C25.0062 11.0106 25.5217 10.7129 26.0602 10.4577L26.148 8.70129C26.1949 7.76578 26.967 7.03125 27.9037 7.03125H33.7631C34.6997 7.03125 35.4719 7.76578 35.5186 8.70129L35.6065 10.4577C36.145 10.713 36.6604 11.0106 37.1504 11.349L38.7155 10.5469C39.549 10.1196 40.5713 10.421 41.0396 11.2323L43.9693 16.3066C44.4377 17.1178 44.1876 18.1537 43.4008 18.6621L41.9283 19.6133C41.9535 19.9141 41.9662 20.2129 41.9662 20.5078Z" fill="white"/>
</g>
<defs>
<clipPath id="clip0_46_2264">
<rect width="60" height="60" fill="white" transform="translate(0.833374)"/>
</clipPath>
</defs>
</svg>
