<svg width="20" height="20" viewBox="0 0 20 20" fill="none" xmlns="http://www.w3.org/2000/svg">
<g clip-path="url(#clip0_10037_6001)">
<path d="M12.9592 10.8301L11.2841 12.5108C10.6049 13.1924 9.40973 13.2071 8.71578 12.5108L7.04066 10.8301L1.02441 16.8659C1.24836 16.9694 1.49527 17.0312 1.75777 17.0312H18.2421C18.5046 17.0312 18.7515 16.9695 18.9754 16.8659L12.9592 10.8301Z" fill="#3D6DF1"/>
<path d="M18.2421 2.96875H1.7577C1.4952 2.96875 1.24828 3.03055 1.02441 3.1341L7.4532 9.58422C7.45363 9.58465 7.45414 9.58473 7.45457 9.58516C7.455 9.58559 7.45508 9.58617 7.45508 9.58617L9.54543 11.6834C9.76746 11.9055 10.2324 11.9055 10.4544 11.6834L12.5443 9.58652C12.5443 9.58652 12.5448 9.58559 12.5453 9.58516C12.5453 9.58516 12.5462 9.58465 12.5466 9.58422L18.9753 3.13406C18.7514 3.03047 18.5046 2.96875 18.2421 2.96875Z" fill="#3D6DF1"/>
<path d="M0.186953 3.95312C0.0710937 4.18742 0 4.4475 0 4.72609V15.273C0 15.5516 0.0710156 15.8116 0.186914 16.0459L6.21359 9.99973L0.186953 3.95312Z" fill="#3D6DF1"/>
<path d="M19.8132 3.95312L13.7866 9.99981L19.8132 16.0461C19.9291 15.8118 20.0002 15.5517 20.0002 15.273V4.72617C20.0002 4.4475 19.9291 4.18742 19.8132 3.95312Z" fill="#3D6DF1"/>
</g>
<defs>
<clipPath id="clip0_10037_6001">
<rect width="20" height="20" fill="white"/>
</clipPath>
</defs>
</svg>
