<svg width="60" height="60" viewBox="0 0 60 60" fill="none" xmlns="http://www.w3.org/2000/svg">
<path opacity="0.5" d="M15.0938 6.45996C18.1721 6.45996 20.8946 8.42205 21.8683 11.3427L23.5365 16.3477H52.3828V5.69092C52.3828 3.56747 50.661 1.8457 48.5376 1.8457H11.4038C9.28036 1.8457 7.55859 3.56747 7.55859 5.69092V6.45996H15.0938Z" fill="#E4EBFC"/>
<path d="M52.0532 58.0957H7.88818C4.55624 58.0957 1.8457 55.3852 1.8457 52.0532V13.6011C1.8457 11.4807 3.57056 9.75586 5.69092 9.75586H15.0938C16.7514 9.75586 18.2174 10.8126 18.7413 12.3854L21.0357 19.268C21.1109 19.4925 21.3197 19.6436 21.5565 19.6436H54.2505C56.3708 19.6436 58.0957 21.3684 58.0957 23.4888V52.0532C58.0957 55.3852 55.3852 58.0957 52.0532 58.0957Z" fill="#3D6DF1"/>
</svg>
