<svg width="49" height="49" viewBox="0 0 49 49" fill="none" xmlns="http://www.w3.org/2000/svg">
<path d="M0.5 24.4014C0.5 13.0877 0.5 7.4308 4.01472 3.91609C7.52944 0.401367 13.1863 0.401367 24.5 0.401367C35.8137 0.401367 41.4706 0.401367 44.9853 3.91609C48.5 7.4308 48.5 13.0877 48.5 24.4014C48.5 35.7151 48.5 41.3719 44.9853 44.8867C41.4706 48.4014 35.8137 48.4014 24.5 48.4014C13.1863 48.4014 7.52944 48.4014 4.01472 44.8867C0.5 41.3719 0.5 35.7151 0.5 24.4014Z" fill="#3D6DF1"/>
<g clip-path="url(#clip0_10037_4487)">
<path d="M28.1621 24.4014H31.8242V27.3311C31.8242 28.947 30.5105 30.2607 28.8945 30.2607H28.5283C27.9195 30.2607 27.4297 30.7505 27.4297 31.3594V33.5566C27.4297 34.1654 27.9195 34.6553 28.5283 34.6553H28.8945C32.9412 34.6553 36.2188 31.3777 36.2188 27.3311V16.3447C36.2188 15.1316 35.2346 14.1475 34.0215 14.1475H28.1621C26.949 14.1475 25.9648 15.1316 25.9648 16.3447V22.2041C25.9648 23.4172 26.949 24.4014 28.1621 24.4014Z" fill="#FDFFFD"/>
<path d="M14.9785 24.4014H18.6406V27.3311C18.6406 28.947 17.3269 30.2607 15.7109 30.2607H15.3447C14.7359 30.2607 14.2461 30.7505 14.2461 31.3594V33.5566C14.2461 34.1654 14.7359 34.6553 15.3447 34.6553H15.7109C19.7576 34.6553 23.0352 31.3777 23.0352 27.3311L23.0352 16.3447C23.0352 15.1316 22.051 14.1475 20.8379 14.1475H14.9785C13.7654 14.1475 12.7813 15.1316 12.7813 16.3447V22.2041C12.7813 23.4172 13.7654 24.4014 14.9785 24.4014Z" fill="#FDFFFD"/>
</g>
<defs>
<clipPath id="clip0_10037_4487">
<rect width="24" height="24" fill="white" transform="matrix(-1 0 0 -1 36.5 36.4014)"/>
</clipPath>
</defs>
</svg>
