<svg width="61" height="60" viewBox="0 0 61 60" fill="none" xmlns="http://www.w3.org/2000/svg">
<g clip-path="url(#clip0_10021_338)">
<path d="M47.745 35.3906H56.9384L60.06 20.4183C60.3123 18.8887 59.8815 17.3352 58.8807 16.1577C57.8764 14.9749 56.4053 14.2969 54.8467 14.2969H5.48707C3.92836 14.2969 2.4573 14.9749 1.45301 16.1577C0.452224 17.3353 0.0213258 18.8889 0.287459 20.4921L3.39515 35.3906H12.5887C13.5603 35.3906 14.3466 36.1768 14.3466 37.1484C14.3466 38.12 13.5603 38.9062 12.5887 38.9062H3.39539L0.273748 53.8786C0.0214429 55.4081 0.452224 56.9617 1.45301 58.1392C2.4573 59.322 3.92847 60 5.48707 60H54.8466C56.4053 60 57.8763 59.322 58.8806 58.1392C59.8814 56.9616 60.3123 55.408 60.0462 53.8048L56.9386 38.9062H47.745C46.7734 38.9062 45.9872 38.12 45.9872 37.1484C45.9872 36.1768 46.7734 35.3906 47.745 35.3906ZM30.1669 42.4219C30.1669 46.2997 27.0135 49.4531 23.1356 49.4531C20.1625 49.4531 17.4966 47.57 16.5061 44.765C16.1816 43.85 16.6605 42.8459 17.5773 42.5231C18.4888 42.197 19.4965 42.6793 19.8192 43.5943C20.3153 44.9951 21.649 45.9375 23.1356 45.9375C25.0737 45.9375 26.6512 44.3599 26.6512 42.4219C26.6512 40.4838 25.0737 38.9062 23.1356 38.9062H20.9504C19.9806 38.9062 19.1926 38.12 19.1926 37.1484C19.1926 36.1768 19.9806 35.3906 20.9504 35.3906H23.1356C25.0737 35.3906 26.6512 33.813 26.6512 31.875C26.6512 29.937 25.0737 28.3594 23.1356 28.3594C21.649 28.3594 20.3153 29.3018 19.8191 30.7025C19.4964 31.6192 18.487 32.0999 17.5772 31.7737C16.6605 31.451 16.1816 30.4468 16.506 29.5318C17.4966 26.7268 20.1625 24.8438 23.1356 24.8438C27.0135 24.8438 30.1669 27.9971 30.1669 31.875C30.1669 33.9727 29.2433 35.8593 27.7808 37.1484C29.2433 38.4376 30.1669 40.3242 30.1669 42.4219ZM42.4716 47.6953C42.4716 48.6669 41.6853 49.4531 40.7137 49.4531C39.7421 49.4531 38.9559 48.6669 38.9559 47.6953V29.8854L36.4153 31.5797C35.6051 32.1152 34.515 31.899 33.9777 31.0922C33.4386 30.2837 33.6567 29.1936 34.4652 28.6546L39.7386 25.1389C40.2777 24.7801 40.9729 24.7459 41.5429 25.0514C42.1145 25.357 42.4716 25.9527 42.4716 26.6016V47.6953Z" fill="#FDFFFD"/>
<path opacity="0.5" d="M3.99805 5.27344V10.5469H56.7324V5.27344C56.7324 2.36555 54.3669 0 51.459 0H9.27148C6.36348 0 3.99805 2.36555 3.99805 5.27344ZM47.9434 3.51562C48.9141 3.51562 49.7012 4.30242 49.7012 5.27344C49.7012 6.24422 48.9141 7.03125 47.9434 7.03125C46.9726 7.03125 46.1855 6.24422 46.1855 5.27344C46.1855 4.30242 46.9726 3.51562 47.9434 3.51562ZM12.7871 3.51562C13.7579 3.51562 14.5449 4.30242 14.5449 5.27344C14.5449 6.24422 13.7579 7.03125 12.7871 7.03125C11.8163 7.03125 11.0293 6.24422 11.0293 5.27344C11.0293 4.30242 11.8163 3.51562 12.7871 3.51562Z" fill="#FDFFFD"/>
</g>
<defs>
<clipPath id="clip0_10021_338">
<rect width="60" height="60" fill="white" transform="translate(0.166992)"/>
</clipPath>
</defs>
</svg>
