<svg width="61" height="60" viewBox="0 0 61 60" fill="none" xmlns="http://www.w3.org/2000/svg">
<g clip-path="url(#clip0_46_2281)">
<path d="M47.7457 35.3906H56.9391L60.0607 20.4183C60.313 18.8887 59.8823 17.3352 58.8815 16.1577C57.8772 14.9749 56.406 14.2969 54.8474 14.2969H5.4878C3.92909 14.2969 2.45803 14.9749 1.45374 16.1577C0.452957 17.3353 0.0220582 18.8889 0.288191 20.4921L3.39589 35.3906H12.5895C13.5611 35.3906 14.3473 36.1768 14.3473 37.1484C14.3473 38.12 13.5611 38.9062 12.5895 38.9062H3.39612L0.27448 53.8786C0.0221753 55.4081 0.452957 56.9617 1.45374 58.1392C2.45803 59.322 3.92921 60 5.4878 60H54.8473C56.406 60 57.8771 59.322 58.8814 58.1392C59.8821 56.9616 60.313 55.408 60.0469 53.8048L56.9393 38.9062H47.7457C46.7741 38.9062 45.9879 38.12 45.9879 37.1484C45.9879 36.1768 46.7741 35.3906 47.7457 35.3906ZM30.1676 42.4219C30.1676 46.2997 27.0142 49.4531 23.1364 49.4531C20.1632 49.4531 17.4973 47.57 16.5068 44.765C16.1823 43.85 16.6613 42.8459 17.578 42.5231C18.4895 42.197 19.4972 42.6793 19.8199 43.5943C20.316 44.9951 21.6497 45.9375 23.1364 45.9375C25.0744 45.9375 26.652 44.3599 26.652 42.4219C26.652 40.4838 25.0744 38.9062 23.1364 38.9062H20.9512C19.9813 38.9062 19.1933 38.12 19.1933 37.1484C19.1933 36.1768 19.9813 35.3906 20.9512 35.3906H23.1364C25.0744 35.3906 26.652 33.813 26.652 31.875C26.652 29.937 25.0744 28.3594 23.1364 28.3594C21.6497 28.3594 20.316 29.3018 19.8198 30.7025C19.4971 31.6192 18.4878 32.0999 17.5779 31.7737C16.6613 31.451 16.1823 30.4468 16.5067 29.5318C17.4973 26.7268 20.1632 24.8438 23.1364 24.8438C27.0142 24.8438 30.1676 27.9971 30.1676 31.875C30.1676 33.9727 29.2441 35.8593 27.7816 37.1484C29.2441 38.4376 30.1676 40.3242 30.1676 42.4219ZM42.4723 47.6953C42.4723 48.6669 41.6861 49.4531 40.7145 49.4531C39.7429 49.4531 38.9567 48.6669 38.9567 47.6953V29.8854L36.416 31.5797C35.6058 32.1152 34.5157 31.899 33.9784 31.0922C33.4394 30.2837 33.6574 29.1936 34.4659 28.6546L39.7394 25.1389C40.2784 24.7801 40.9736 24.7459 41.5436 25.0514C42.1152 25.357 42.4723 25.9527 42.4723 26.6016V47.6953Z" fill="white"/>
<path d="M3.99683 5.27344V10.5469H56.7312V5.27344C56.7312 2.36555 54.3657 0 51.4578 0H9.27026C6.36226 0 3.99683 2.36555 3.99683 5.27344ZM47.9421 3.51562C48.9129 3.51562 49.7 4.30242 49.7 5.27344C49.7 6.24422 48.9129 7.03125 47.9421 7.03125C46.9714 7.03125 46.1843 6.24422 46.1843 5.27344C46.1843 4.30242 46.9714 3.51562 47.9421 3.51562ZM12.7859 3.51562C13.7567 3.51562 14.5437 4.30242 14.5437 5.27344C14.5437 6.24422 13.7567 7.03125 12.7859 7.03125C11.8151 7.03125 11.0281 6.24422 11.0281 5.27344C11.0281 4.30242 11.8151 3.51562 12.7859 3.51562Z" fill="#BEE0F4"/>
</g>
<defs>
<clipPath id="clip0_46_2281">
<rect width="60" height="60" fill="white" transform="translate(0.166748)"/>
</clipPath>
</defs>
</svg>
