<svg width="59" height="60" viewBox="0 0 59 60" fill="none" xmlns="http://www.w3.org/2000/svg">
<path d="M11.8327 60C10.2216 60 8.79159 59.4722 7.5427 58.4167C6.29381 57.3611 5.52937 56.0278 5.24937 54.4167L0.166033 23.9167C-0.000633903 22.9167 0.236033 22.0144 0.876033 21.21C1.51603 20.4056 2.3627 20.0022 3.41603 20H55.5827C56.6383 20 57.486 20.4033 58.126 21.21C58.766 22.0167 59.0016 22.9189 58.8327 23.9167L53.7494 54.4167C53.4716 56.0278 52.7082 57.3611 51.4594 58.4167C50.2105 59.4722 48.7794 60 47.166 60H11.8327ZM22.8327 40H36.166C37.1105 40 37.9027 39.68 38.5427 39.04C39.1827 38.4 39.5016 37.6089 39.4994 36.6667C39.4971 35.7244 39.1771 34.9333 38.5394 34.2933C37.9016 33.6533 37.1105 33.3333 36.166 33.3333H22.8327C21.8883 33.3333 21.0971 33.6533 20.4594 34.2933C19.8216 34.9333 19.5016 35.7244 19.4994 36.6667C19.4971 37.6089 19.8171 38.4011 20.4594 39.0433C21.1016 39.6856 21.8927 40.0044 22.8327 40ZM9.49936 16.6667C8.55492 16.6667 7.76381 16.3467 7.12603 15.7067C6.48825 15.0667 6.16825 14.2756 6.16603 13.3333C6.16381 12.3911 6.48381 11.6 7.12603 10.96C7.76825 10.32 8.55937 10 9.49936 10H49.4994C50.4438 10 51.236 10.32 51.876 10.96C52.516 11.6 52.8349 12.3911 52.8327 13.3333C52.8305 14.2756 52.5105 15.0678 51.8727 15.71C51.2349 16.3522 50.4438 16.6711 49.4994 16.6667H9.49936ZM16.166 6.66667C15.2216 6.66667 14.4305 6.34667 13.7927 5.70667C13.1549 5.06667 12.8349 4.27556 12.8327 3.33333C12.8305 2.39111 13.1505 1.6 13.7927 0.96C14.4349 0.32 15.226 0 16.166 0H42.8327C43.7771 0 44.5694 0.32 45.2094 0.96C45.8494 1.6 46.1683 2.39111 46.166 3.33333C46.1638 4.27556 45.8438 5.06778 45.206 5.71C44.5682 6.35222 43.7771 6.67111 42.8327 6.66667H16.166Z" fill="white"/>
<rect x="6.16003" y="10.0002" width="46.6667" height="6.66667" rx="3.33333" fill="#BEE0F4"/>
<rect x="12.8269" width="33.3333" height="6.66667" rx="3.33333" fill="#BEE0F4"/>
</svg>
