<svg width="60" height="54" viewBox="0 0 60 54" fill="none" xmlns="http://www.w3.org/2000/svg">
<path d="M35.4386 41.2691C35.4386 42.238 34.6531 43.0235 33.6842 43.0235H26.1988C25.2299 43.0235 24.4445 42.238 24.4445 41.2691V37.9943C23.8728 37.9943 25.5947 38.3498 2.92398 33.1431V47.5849C2.92398 50.616 5.38995 53.082 8.42106 53.082H51.462C54.4931 53.082 56.9591 50.616 56.9591 47.5849V33.1504L35.4386 37.701V41.2691Z" fill="#BEE0F4"/>
<path d="M56.2573 10.1584H3.74269C1.67567 10.1584 0 11.8341 0 13.9011V26.0776C0 27.7128 1.12959 29.1313 2.72339 29.4974L24.4444 34.4859V30.0415C24.4444 29.0726 25.2299 28.2871 26.1988 28.2871H33.6842C34.6531 28.2871 35.4386 29.0726 35.4386 30.0415V34.1149L57.2766 29.4974C58.8704 29.1313 60 27.7128 60 26.0776V13.9011C60 11.8341 58.3243 10.1584 56.2573 10.1584Z" fill="white"/>
<path d="M27.9532 31.7954H31.9298V39.5147H27.9532V31.7954Z" fill="white"/>
<path d="M25.1462 4.42698H34.7368V6.64921H38.2456V2.6726C38.2456 1.70371 37.4601 0.918213 36.4912 0.918213H23.3918C22.4229 0.918213 21.6374 1.70371 21.6374 2.6726V6.64921H25.1462V4.42698Z" fill="white"/>
</svg>
