<svg width="70" height="50" viewBox="0 0 70 50" fill="none" xmlns="http://www.w3.org/2000/svg">
<path fill-rule="evenodd" clip-rule="evenodd" d="M14.2298 0.698935C14.6759 1.14644 14.9261 1.75273 14.9255 2.38461C14.9249 3.01649 14.6736 3.6223 14.2266 4.06897C11.4849 6.79762 9.31044 10.0419 7.82844 13.6149C6.34644 17.1878 5.58625 21.0188 5.59169 24.8869C5.58627 28.7992 6.36409 32.6731 7.8793 36.2801C9.39452 39.8872 11.6165 43.1544 14.4142 45.8892C14.643 46.1072 14.8261 46.3684 14.9531 46.6578C15.08 46.9472 15.1481 47.259 15.1535 47.5749C15.1589 47.8909 15.1014 48.2047 14.9844 48.4983C14.8675 48.7918 14.6933 49.0592 14.4721 49.2848C14.2508 49.5105 13.987 49.6899 13.6958 49.8127C13.4046 49.9354 13.092 49.9991 12.776 50C12.46 50.0009 12.147 49.9389 11.8551 49.8177C11.5633 49.6966 11.2984 49.5186 11.0759 49.2942C7.82534 46.1154 5.24358 42.3184 3.48271 38.1267C1.72184 33.9351 0.817446 29.4334 0.822777 24.8869C0.822777 15.4381 4.66017 6.87945 10.8566 0.695755C11.3041 0.249645 11.9104 -0.000595054 12.5423 1.0626e-06C13.1741 0.000597179 13.7831 0.251982 14.2298 0.698935ZM56.0341 0.927843C56.4858 0.48592 57.0945 0.241375 57.7264 0.247932C58.3583 0.254489 58.9617 0.511612 59.4042 0.962814C65.6763 7.34527 69.1866 15.9384 69.1773 24.8869C69.1773 34.3103 65.3621 42.8498 59.1911 49.0303C58.7442 49.4781 58.1378 49.7299 57.5052 49.7305C56.8726 49.7311 56.2657 49.4804 55.8179 49.0335C55.3702 48.5866 55.1183 47.9802 55.1177 47.3475C55.1171 46.715 55.3679 46.108 55.8148 45.6603C58.5436 42.9335 60.7075 39.6949 62.1821 36.1301C63.6568 32.5654 64.4133 28.7446 64.4083 24.8869C64.4187 17.1872 61.3992 9.79268 56.0023 4.30106C55.56 3.84977 55.3149 3.24135 55.3208 2.60946C55.3268 1.97757 55.5833 1.3707 56.0341 0.927843ZM23.2621 10.542C23.6942 11.0037 23.9252 11.618 23.9044 12.25C23.8835 12.882 23.6125 13.4799 23.1508 13.912C20.1337 16.7352 18.3056 20.5949 18.3056 24.8297C18.3056 29.1153 20.1782 33.0163 23.2589 35.849C23.7244 36.2774 24.0006 36.8731 24.0268 37.5051C24.0531 38.1371 23.8272 38.7536 23.3988 39.2191C22.9705 39.6845 22.3748 39.9607 21.7428 39.987C21.1108 40.0132 20.4942 39.7873 20.0288 39.359C16.0483 35.6996 13.5367 30.5524 13.5367 24.8297C13.5367 19.1737 15.9879 14.0837 19.8953 10.4275C20.3574 9.99584 20.972 9.76538 21.604 9.78684C22.236 9.8083 22.8336 10.0799 23.2653 10.542M46.9001 10.6628C47.337 10.206 47.9373 9.94135 48.5693 9.92704C49.2012 9.91274 49.813 10.1499 50.2701 10.5865C54.0757 14.2268 56.4601 19.2564 56.4601 24.8297C56.4601 30.4729 54.0216 35.5534 50.1334 39.2032C49.9064 39.4237 49.6378 39.5968 49.3432 39.7124C49.0486 39.8281 48.7339 39.8839 48.4176 39.8767C48.1012 39.8695 47.7894 39.7993 47.5004 39.6704C47.2114 39.5414 46.9509 39.3563 46.7342 39.1256C46.5175 38.895 46.3489 38.6235 46.2382 38.3271C46.1274 38.0306 46.0768 37.7151 46.0893 37.3988C46.1018 37.0826 46.1771 36.772 46.3108 36.4852C46.4446 36.1984 46.6341 35.9411 46.8683 35.7282C49.8727 32.9082 51.6912 29.0517 51.6912 24.8297C51.6912 20.6553 49.914 16.8433 46.9732 14.0328C46.5168 13.5955 46.2528 12.9949 46.239 12.3629C46.2253 11.731 46.4631 11.1195 46.9001 10.6628Z" fill="white"/>
<path d="M40.0871 19.9623C42.9358 22.0542 44.3601 23.1002 44.3601 24.8901C44.3601 26.6769 42.9358 27.7197 40.0871 29.8117C39.344 30.3616 38.5827 30.8865 37.8044 31.3854C37.1781 31.7828 36.4659 32.1929 35.7283 32.5967C32.8861 34.1546 31.4681 34.9303 30.1932 34.0687C28.9183 33.2071 28.8039 31.4045 28.5718 27.8024C28.5082 26.785 28.4637 25.7835 28.4637 24.887C28.4637 23.9904 28.505 22.9921 28.5718 21.9716C28.8007 18.3694 28.9183 16.5668 30.1932 15.7084C31.4649 14.8468 32.8861 15.6225 35.7252 17.1772C36.4659 17.581 37.1781 17.9911 37.8044 18.3885C38.5229 18.8432 39.3018 19.3868 40.0871 19.9623Z" fill="#BEE0F4"/>
</svg>
