<svg width="24" height="20" viewBox="0 0 24 20" fill="none" xmlns="http://www.w3.org/2000/svg">
<path fill-rule="evenodd" clip-rule="evenodd" d="M8.76814 8.9205L6.49309 11.8567C7.3188 12.672 8.24977 13.4245 9.2718 14.1014C9.67564 14.3688 9.74738 14.9419 9.40489 15.2844C9.1608 15.5285 8.78002 15.5736 8.49172 15.3838C6.82706 14.2877 5.37157 12.9967 4.18474 11.5508C2.02182 8.91589 0.75 5.76319 0.75 2.36341C0.75 2.04788 0.947498 1.76607 1.2441 1.65842L3.46965 0.850588C5.29249 0.188926 7.31891 1.0264 8.1432 2.78175L9.1983 5.02857C9.7971 6.30372 9.63097 7.80694 8.76814 8.9205ZM3.98145 2.26058C5.07495 1.86364 6.29081 2.36596 6.78548 3.41933L7.84054 5.66614C8.1999 6.43141 8.10019 7.33354 7.58243 8.00179L5.46098 10.7397C5.42171 10.6931 5.38279 10.6462 5.34416 10.5991C3.48708 8.33678 2.38303 5.69948 2.26126 2.88495L3.98145 2.26058Z" fill="white"/>
<path fill-rule="evenodd" clip-rule="evenodd" d="M10.3376 16.4731C10.655 16.6406 10.9781 16.8016 11.3067 16.956C14.5816 18.4941 18.413 19.3747 22.5005 19.3747C22.9148 19.3747 23.2505 19.0389 23.2505 18.6247V16.2455C23.2505 14.5689 22.138 13.0958 20.5252 12.6376L17.6717 11.8269C16.3495 11.4512 14.9279 11.8291 13.9667 12.8116C12.7598 14.0453 11.5531 15.2577 10.3376 16.4731ZM21.7505 17.8642C18.5593 17.775 15.5613 17.1192 12.9187 16.0278L15.0389 13.8606C15.6157 13.2711 16.4686 13.0444 17.2617 13.2698L20.1153 14.0805C21.0828 14.3554 21.7505 15.2392 21.7505 16.2455V17.8642Z" fill="white"/>
</svg>
