<svg width="61" height="60" viewBox="0 0 61 60" fill="none" xmlns="http://www.w3.org/2000/svg">
<g clip-path="url(#clip0_46_2241)">
<path d="M51.8394 32.0293H47.1992C47.6722 33.3242 47.9306 34.7217 47.9306 36.1782V53.7154C47.9306 54.3226 47.8249 54.9055 47.6326 55.4476H55.3038C58.1694 55.4476 60.5006 53.1163 60.5006 50.2508V40.6905C60.5007 35.9148 56.6153 32.0293 51.8394 32.0293Z" fill="white"/>
<path d="M13.0701 36.1792C13.0701 34.7225 13.3285 33.3252 13.8015 32.0303H9.16135C4.38548 32.0303 0.5 35.9157 0.5 40.6916V50.2519C0.5 53.1174 2.83122 55.4487 5.69681 55.4487H13.3681C13.1758 54.9064 13.0701 54.3236 13.0701 53.7163V36.1792Z" fill="#BEE0F4"/>
<path d="M35.8046 27.5176H25.1965C20.4206 27.5176 16.5352 31.4031 16.5352 36.1789V53.7161C16.5352 54.6727 17.3107 55.4483 18.2674 55.4483H42.7336C43.6904 55.4483 44.4659 54.6728 44.4659 53.7161V36.1789C44.4659 31.4031 40.5804 27.5176 35.8046 27.5176Z" fill="white"/>
<path d="M30.5003 4.55176C24.7567 4.55176 20.084 9.2245 20.084 14.9682C20.084 18.8641 22.2343 22.2667 25.4098 24.0531C26.916 24.9004 28.6525 25.3846 30.5003 25.3846C32.3481 25.3846 34.0846 24.9004 35.5908 24.0531C38.7665 22.2667 40.9167 18.864 40.9167 14.9682C40.9167 9.22462 36.2439 4.55176 30.5003 4.55176Z" fill="white"/>
<path d="M12.208 14.2607C7.91251 14.2607 4.41797 17.7553 4.41797 22.0508C4.41797 26.3463 7.91251 29.8409 12.208 29.8409C13.2976 29.8409 14.3352 29.6151 15.2778 29.2094C16.9074 28.5078 18.251 27.2659 19.0825 25.7102C19.6661 24.6184 19.9981 23.3728 19.9981 22.0508C19.9981 17.7554 16.5035 14.2607 12.208 14.2607Z" fill="#BEE0F4"/>
<path d="M48.7901 14.2607C44.4945 14.2607 41 17.7553 41 22.0508C41 23.3729 41.332 24.6185 41.9156 25.7102C42.747 27.266 44.0907 28.508 45.7203 29.2094C46.6629 29.6151 47.7004 29.8409 48.7901 29.8409C53.0856 29.8409 56.5801 26.3463 56.5801 22.0508C56.5801 17.7553 53.0856 14.2607 48.7901 14.2607Z" fill="white"/>
</g>
<defs>
<clipPath id="clip0_46_2241">
<rect width="60" height="60" fill="white" transform="translate(0.5)"/>
</clipPath>
</defs>
</svg>
