<svg width="20" height="20" viewBox="0 0 20 20" fill="none" xmlns="http://www.w3.org/2000/svg">
<path fill-rule="evenodd" clip-rule="evenodd" d="M6.25 13.75C6.25 11.6789 7.92894 10 10 10C12.0711 10 13.75 11.6789 13.75 13.75V18.75C13.75 19.0952 13.4702 19.375 13.125 19.375H6.875C6.52981 19.375 6.25 19.0952 6.25 18.75V13.75ZM10 11.25C8.61928 11.25 7.5 12.3693 7.5 13.75V18.125H12.5V13.75C12.5 12.3693 11.3807 11.25 10 11.25Z" fill="#778874"/>
<path fill-rule="evenodd" clip-rule="evenodd" d="M11.9338 2.53477C10.7994 1.65508 9.20056 1.65508 8.06619 2.53476L3.06617 6.41216C2.31253 6.99659 1.875 7.88784 1.875 8.82856V15.0488C1.875 16.7401 3.26638 18.125 5 18.125H15C16.7336 18.125 18.125 16.7401 18.125 15.0488V8.82856C18.125 7.88784 17.6875 6.99659 16.9338 6.41216L11.9338 2.53477ZM7.30016 1.54698C8.88538 0.317675 11.1146 0.317675 12.6998 1.54698L17.6998 5.42438C18.7559 6.24331 19.375 7.49778 19.375 8.82856V15.0488C19.375 17.4458 17.4085 19.375 15 19.375H5C2.59151 19.375 0.625 17.4458 0.625 15.0488V8.82856C0.625 7.49778 1.24413 6.24331 2.30016 5.42438L7.30016 1.54698Z" fill="#00080E"/>
</svg>
