<svg width="36" height="36" viewBox="0 0 36 36" fill="none" xmlns="http://www.w3.org/2000/svg">
<path d="M10.315 18C5.59398 18 1.76244 14.1685 1.76244 9.44745C1.76244 4.72644 5.59398 0.894897 10.315 0.894897C15.036 0.894897 18.8675 4.72644 18.8675 9.44745C18.8675 14.1685 15.036 18 10.315 18ZM0.992706 27.5789C1.65981 26.8946 2.49796 26.5525 3.47295 26.5525H15.4465L19.0044 25.3039L18.4399 23.696L15.4465 24.842H10.6571C10.0584 24.842 9.57947 24.6026 9.18605 24.2091C8.79263 23.8157 8.60448 23.3368 8.60448 22.8065C8.60448 21.8829 9.04921 21.25 9.93868 20.8908L22.3741 16.2895H25.7096V31.6841L13.736 35.1051L0.000610352 29.9736C-0.0164948 29.067 0.325607 28.2631 0.992706 27.5789ZM29.1306 16.2895H36V35.1051H29.1306V16.2895Z" fill="url(#paint0_linear_46_1494)"/>
<defs>
<linearGradient id="paint0_linear_46_1494" x1="36" y1="0.894897" x2="-1.08032" y2="2.10894" gradientUnits="userSpaceOnUse">
<stop stop-color="#5943EA"/>
<stop offset="1" stop-color="#05BBF8"/>
</linearGradient>
</defs>
</svg>
