<svg width="36" height="36" viewBox="0 0 36 36" fill="none" xmlns="http://www.w3.org/2000/svg">
<path d="M25.685 18C30.406 18 34.2376 14.1685 34.2376 9.44745C34.2376 4.72644 30.406 0.894897 25.685 0.894897C20.964 0.894897 17.1325 4.72644 17.1325 9.44745C17.1325 14.1685 20.964 18 25.685 18ZM35.0073 27.5789C34.3402 26.8946 33.502 26.5525 32.5271 26.5525H20.5535L16.9956 25.3039L17.5601 23.696L20.5535 24.842H25.3429C25.9416 24.842 26.4205 24.6026 26.8139 24.2091C27.2074 23.8157 27.3955 23.3368 27.3955 22.8065C27.3955 21.8829 26.9508 21.25 26.0613 20.8908L13.6259 16.2895H10.2904V31.6841L22.264 35.1051L35.9994 29.9736C36.0165 29.067 35.6744 28.2631 35.0073 27.5789ZM6.86941 16.2895H0V35.1051H6.86941V16.2895Z" fill="url(#paint0_linear_46_1493)"/>
<defs>
<linearGradient id="paint0_linear_46_1493" x1="0" y1="0.894897" x2="37.0803" y2="2.10894" gradientUnits="userSpaceOnUse">
<stop stop-color="#5943EA"/>
<stop offset="1" stop-color="#05BBF8"/>
</linearGradient>
</defs>
</svg>
