<svg width="24" height="24" viewBox="0 0 24 24" fill="none" xmlns="http://www.w3.org/2000/svg">
<path d="M21.7908 2.25977H2.20922C1.01484 2.25977 0 3.22352 0 4.46898V19.5318C0 20.2827 0.368906 20.9315 0.924375 21.3285L9.24328 13.0096C9.51797 12.7349 9.96328 12.7349 10.238 13.0096L12.7533 15.5249L18.2808 9.99695C18.413 9.86523 18.5916 9.79117 18.7781 9.79117C18.9647 9.79117 19.1433 9.86523 19.2755 9.99695L24 14.7215V4.46898C24 3.22352 22.9852 2.25977 21.7908 2.25977ZM5.97516 11.1974C4.34156 11.1974 3.01266 9.86852 3.01266 8.23492C3.01266 6.60133 4.34156 5.27242 5.97516 5.27242C7.60875 5.27242 8.93766 6.60133 8.93766 8.23492C8.93766 9.86852 7.60875 11.1974 5.97516 11.1974ZM5.97516 6.67867C5.11688 6.67867 4.41891 7.37664 4.41891 8.23492C4.41891 9.09273 5.11688 9.79117 5.97516 9.79117C6.83297 9.79117 7.53141 9.09273 7.53141 8.23492C7.53141 7.37664 6.83297 6.67867 5.97516 6.67867ZM18.7781 11.4885L13.2502 17.0165C12.9759 17.2907 12.5306 17.2907 12.2559 17.0165L9.74063 14.5012L2.50078 21.741H21.7908C22.9852 21.741 24 20.7773 24 19.5318V16.7104L18.7781 11.4885Z" fill="#FDFFFD"/>
</svg>
