<svg width="20" height="20" viewBox="0 0 20 20" fill="none" xmlns="http://www.w3.org/2000/svg">
<path fill-rule="evenodd" clip-rule="evenodd" d="M5.2205 5.00033L5.71395 3.4213C6.0401 2.37762 7.00669 1.66699 8.10015 1.66699H11.8995C12.993 1.66699 13.9596 2.37762 14.2858 3.4213L14.7792 5.00033H15.8332C17.2139 5.00033 18.3332 6.11962 18.3332 7.50033V15.8337C18.3332 17.2144 17.2139 18.3337 15.8332 18.3337H4.1665C2.7858 18.3337 1.6665 17.2144 1.6665 15.8337V7.50033C1.6665 6.11962 2.7858 5.00033 4.1665 5.00033H5.2205ZM13.033 5.00033L12.6949 3.91843C12.5862 3.57053 12.264 3.33366 11.8995 3.33366H8.10015C7.73566 3.33366 7.41347 3.57053 7.30475 3.91843L6.96665 5.00033H13.033ZM4.1665 6.66699C3.70627 6.66699 3.33317 7.04009 3.33317 7.50033V15.8337C3.33317 16.2939 3.70627 16.667 4.1665 16.667H15.8332C16.2934 16.667 16.6665 16.2939 16.6665 15.8337V7.50033C16.6665 7.04009 16.2934 6.66699 15.8332 6.66699H4.1665Z" fill="#989C9F"/>
<path d="M12.4998 10.833H10.8332V9.16634C10.8332 8.70609 10.4601 8.33301 9.99984 8.33301C9.53959 8.33301 9.1665 8.70609 9.1665 9.16634V10.833H7.49984C7.0396 10.833 6.6665 11.2061 6.6665 11.6663C6.6665 12.1266 7.0396 12.4997 7.49984 12.4997H9.1665V14.1663C9.1665 14.6266 9.53959 14.9997 9.99984 14.9997C10.4601 14.9997 10.8332 14.6266 10.8332 14.1663V12.4997H12.4998C12.9601 12.4997 13.3332 12.1266 13.3332 11.6663C13.3332 11.2061 12.9601 10.833 12.4998 10.833Z" fill="#C4CCC3"/>
</svg>
