<svg width="36" height="37" viewBox="0 0 36 37" fill="none" xmlns="http://www.w3.org/2000/svg">
<path d="M35.9998 18.4999C35.9998 28.4412 27.941 36.5 17.9999 36.5C8.05875 36.4998 -0.000244141 28.441 -0.000244141 18.4999C-0.000244141 8.55876 8.05876 0.5 18.0001 0.5C27.941 0.5 35.9998 8.55876 35.9998 18.4999Z" fill="#4AC8EB"/>
<mask id="mask0_72_1978" style="mask-type:luminance" maskUnits="userSpaceOnUse" x="0" y="0" width="36" height="37">
<path d="M-6.10352e-05 18.5004C-6.10352e-05 28.4415 8.0587 36.5002 17.9998 36.5002C27.9412 36.5002 35.9999 28.4415 35.9999 18.5004C35.9997 8.559 27.9409 0.5 17.9998 0.5C8.0587 0.5 -6.10352e-05 8.559 -6.10352e-05 18.5004Z" fill="white"/>
</mask>
<g mask="url(#mask0_72_1978)">
<path d="M28.4411 38.9098V38.9118H7.57092V38.9098C7.57092 37.7311 7.76577 36.5961 8.12772 35.5399C8.19283 35.3489 8.26349 35.1601 8.34017 34.9732V34.9712C8.41492 34.7844 8.49764 34.6013 8.58445 34.4205C8.92856 33.6944 9.35755 33.0158 9.85527 32.3941C9.98115 32.2388 10.109 32.0877 10.2409 31.9418C10.306 31.867 10.3747 31.7942 10.4437 31.7214C10.5124 31.6505 10.5811 31.5798 10.6518 31.5089C11.0043 31.1568 11.3817 30.8342 11.7794 30.5371C11.9778 30.3898 12.1784 30.2518 12.3873 30.1185C12.4623 30.0712 12.5368 30.0237 12.6135 29.9786C12.647 29.9591 12.6822 29.9393 12.7157 29.9198C12.818 29.8588 12.9202 29.7997 13.0246 29.7425C13.0285 29.7387 13.0321 29.7387 13.0321 29.7387C13.117 29.6933 13.1994 29.6439 13.2822 29.593C13.5281 29.4459 13.764 29.2822 13.9885 29.1013C14.7102 28.5269 15.3085 27.803 15.7375 26.9788C15.873 26.7172 15.9931 26.4456 16.0934 26.1661C16.3432 25.4697 16.479 24.7203 16.479 23.9375L17.9999 23.9452H18.0037L19.5639 23.9532C19.5639 24.7263 19.6956 25.4678 19.9399 26.1565C20.0383 26.4377 20.1559 26.7092 20.2919 26.9708C20.7188 27.7992 21.3149 28.5269 22.0369 29.1035C22.1784 29.2193 22.3221 29.3258 22.4736 29.4262C22.4892 29.438 22.503 29.4479 22.5189 29.4575C22.5896 29.5045 22.6607 29.552 22.7352 29.595C22.816 29.6441 22.8985 29.6933 22.9812 29.7389C22.9952 29.7428 23.0067 29.7488 23.0166 29.7565C23.109 29.8079 23.2013 29.8609 23.292 29.9157C23.3706 29.961 23.4492 30.0085 23.5281 30.0575C23.6086 30.1067 23.6894 30.1578 23.768 30.2147C23.9313 30.3193 24.0907 30.4332 24.2457 30.5513C24.2457 30.5533 24.2479 30.5533 24.2479 30.5533H24.2501C24.4488 30.7006 24.6414 30.8583 24.8303 31.0196C25.0188 31.181 25.1999 31.35 25.3752 31.5253C27.2706 33.4132 28.4411 36.0219 28.4411 38.9098Z" fill="#ECC19C"/>
</g>
<mask id="mask1_72_1978" style="mask-type:luminance" maskUnits="userSpaceOnUse" x="0" y="0" width="36" height="37">
<path d="M-6.10352e-05 18.5004C-6.10352e-05 28.4415 8.0587 36.5002 17.9998 36.5002C27.9412 36.5002 35.9999 28.4415 35.9999 18.5004C35.9997 8.559 27.9409 0.5 17.9998 0.5C8.0587 0.5 -6.10352e-05 8.559 -6.10352e-05 18.5004Z" fill="white"/>
</mask>
<g mask="url(#mask1_72_1978)">
<path d="M28.4411 38.9098H7.57092C7.57092 37.7311 7.76577 36.596 8.12772 35.5398C8.19283 35.3488 8.26349 35.16 8.34017 34.9731V34.9712C8.41492 34.7843 8.49764 34.6013 8.58445 34.4204C8.92856 33.6943 9.35755 33.0157 9.85527 32.3941C9.98115 32.2388 10.109 32.0876 10.2409 31.9417C10.306 31.8669 10.3747 31.7941 10.4437 31.7213C10.5124 31.6504 10.5811 31.5797 10.6518 31.5088C11.0043 31.1568 11.3817 30.8341 11.7794 30.537C11.9778 30.3897 12.1784 30.2518 12.3873 30.1184C12.4623 30.0711 12.5368 30.0236 12.6135 29.9785C12.647 29.9568 12.68 29.9373 12.7138 29.9175C12.816 29.8568 12.9202 29.7977 13.0246 29.7405C13.0285 29.7367 13.0321 29.7386 13.0321 29.7386V29.7367C13.117 29.6894 13.1994 29.6419 13.2822 29.5927C13.5281 29.4432 13.764 29.278 13.9844 29.0972C13.9861 29.0993 13.9861 29.0993 13.9882 29.101C15.0073 30.1437 16.4255 30.7907 17.9994 30.7948H18.0148C19.5888 30.7948 21.0132 30.1457 22.0361 29.103L22.0381 29.1008C22.1777 29.2168 22.3233 29.3253 22.4728 29.4256C22.4885 29.4374 22.5023 29.4473 22.5182 29.457C22.5888 29.504 22.6619 29.5496 22.7345 29.5944C22.8153 29.6436 22.8977 29.6909 22.9804 29.7364C22.9944 29.7403 23.0043 29.7483 23.0159 29.7538C23.1082 29.8049 23.2028 29.8585 23.2932 29.9132C23.3716 29.9605 23.4504 30.008 23.5274 30.0569C23.6079 30.1061 23.6887 30.1572 23.7673 30.2141C23.9305 30.3188 24.0899 30.4326 24.245 30.5508H24.2493C24.448 30.7 24.6426 30.8558 24.8295 31.0188C25.0181 31.1802 25.1992 31.3492 25.3745 31.5245C27.2706 33.4131 28.4411 36.0218 28.4411 38.9098Z" fill="#7D6991"/>
</g>
<mask id="mask2_72_1978" style="mask-type:luminance" maskUnits="userSpaceOnUse" x="0" y="0" width="36" height="37">
<path d="M-6.10352e-05 18.5004C-6.10352e-05 28.4415 8.0587 36.5002 17.9998 36.5002C27.9412 36.5002 35.9999 28.4415 35.9999 18.5004C35.9997 8.559 27.9409 0.5 17.9998 0.5C8.0587 0.5 -6.10352e-05 8.559 -6.10352e-05 18.5004Z" fill="white"/>
</mask>
<g mask="url(#mask2_72_1978)">
<path d="M23.2932 29.9139L23.2911 29.9159L23.0767 30.1343C21.727 31.5093 19.9252 32.2668 18.003 32.2668H17.9992C16.0597 32.2607 14.2634 31.5035 12.92 30.1305L12.7152 29.9202L12.7133 29.918C12.8156 29.857 12.9197 29.7982 13.0242 29.741C13.028 29.7372 13.0319 29.7391 13.0319 29.7391V29.7372C13.1165 29.6899 13.199 29.6424 13.2817 29.5932C13.5277 29.4437 13.7635 29.2785 13.9839 29.0977C13.9861 29.0996 13.9861 29.0996 13.9882 29.1013C15.0073 30.144 16.4255 30.7912 17.9994 30.7951H18.0148C19.5888 30.7951 21.0132 30.1459 22.0361 29.1032L22.0381 29.101C22.1777 29.217 22.3233 29.3255 22.4729 29.4259C22.4885 29.4377 22.5023 29.4476 22.5182 29.4572C22.5888 29.5045 22.6619 29.5498 22.7345 29.5949C22.8153 29.6438 22.8978 29.6911 22.9805 29.7367C22.9945 29.7405 23.0043 29.7485 23.0159 29.754C23.108 29.8057 23.2028 29.8589 23.2932 29.9139Z" fill="#DDE0E8"/>
</g>
<mask id="mask3_72_1978" style="mask-type:luminance" maskUnits="userSpaceOnUse" x="0" y="0" width="36" height="37">
<path d="M-6.10352e-05 18.5004C-6.10352e-05 28.4415 8.0587 36.5002 17.9998 36.5002C27.9412 36.5002 35.9999 28.4415 35.9999 18.5004C35.9997 8.559 27.9409 0.5 17.9998 0.5C8.0587 0.5 -6.10352e-05 8.559 -6.10352e-05 18.5004Z" fill="white"/>
</mask>
<g mask="url(#mask3_72_1978)">
<path d="M26.0157 12.7635V17.5656C26.0157 17.6522 26.0138 17.7387 26.0119 17.8253C26.0097 17.8924 26.0075 17.9592 26.0039 18.0259C26.002 18.093 25.9979 18.1579 25.9921 18.2246C25.9899 18.27 25.9863 18.3153 25.9822 18.3604C25.98 18.3879 25.9781 18.4135 25.9745 18.4412C25.9701 18.4904 25.9665 18.5415 25.9586 18.5907C25.9547 18.6377 25.9511 18.685 25.9431 18.7323C25.939 18.7776 25.9332 18.8246 25.9255 18.8719C25.9077 19.0137 25.884 19.1552 25.8585 19.2948C25.8411 19.3896 25.8235 19.4837 25.8035 19.5763C25.8016 19.5804 25.8016 19.584 25.7994 19.5881C25.7972 19.6021 25.7953 19.6156 25.7917 19.6293C25.7895 19.6334 25.7895 19.6373 25.7876 19.6414C25.7876 19.6452 25.7876 19.6491 25.7857 19.6532C25.7816 19.6727 25.7777 19.6925 25.7717 19.7123C25.7676 19.7357 25.762 19.759 25.756 19.7829C25.7521 19.8082 25.7461 19.8321 25.7384 19.8557C25.7326 19.8909 25.7227 19.9266 25.7148 19.9621C25.7087 19.9814 25.7049 20.0033 25.6969 20.0231C25.6931 20.0405 25.6873 20.0583 25.6832 20.0742C25.6419 20.2355 25.5947 20.3925 25.5455 20.5502C25.5218 20.6247 25.4982 20.6978 25.4727 20.7726C25.4707 20.7803 25.4669 20.7882 25.4649 20.7964C25.4413 20.863 25.4177 20.93 25.394 20.9968C25.3863 21.0164 25.3786 21.0361 25.3704 21.0581C25.3465 21.121 25.3231 21.1837 25.2976 21.2467C25.2682 21.3233 25.2366 21.3981 25.205 21.4728C25.1777 21.5394 25.1481 21.6067 25.1187 21.6735C25.1146 21.6853 25.1088 21.6952 25.1047 21.707C25.0712 21.7777 25.04 21.8485 25.0065 21.9175C24.9728 21.9901 24.9378 22.0632 24.9004 22.1357C24.8295 22.2795 24.7528 22.4227 24.6762 22.5626L24.5698 22.7514C24.2669 23.2727 23.9305 23.7627 23.5645 24.2151C23.5153 24.28 23.4642 24.3427 23.4111 24.4039C23.3383 24.4922 23.2635 24.579 23.1888 24.6634C23.122 24.7384 23.0547 24.8129 22.986 24.886C22.7974 25.0885 22.6043 25.2812 22.408 25.4623C22.3684 25.5016 22.3272 25.5371 22.2859 25.5744C22.2189 25.6355 22.1519 25.6945 22.0831 25.7514C22.0299 25.7985 21.9751 25.844 21.9197 25.8889C21.7781 26.0051 21.6366 26.1173 21.4928 26.2214C21.4337 26.267 21.3727 26.3099 21.312 26.3512C21.2136 26.4221 21.1133 26.4889 21.013 26.5542C20.9577 26.5913 20.9008 26.6268 20.8437 26.6601C20.6606 26.7741 20.4738 26.8786 20.291 26.9709C20.2731 26.9808 20.2575 26.9885 20.2399 26.9965C20.1907 27.0218 20.1415 27.0457 20.0923 27.0693C20.0433 27.0929 19.992 27.1166 19.9387 27.1402C19.8738 27.1696 19.8089 27.1971 19.7441 27.2227C19.7183 27.2345 19.6929 27.2444 19.6674 27.2523C19.5907 27.2837 19.5118 27.3133 19.4352 27.3389C19.3387 27.3741 19.2403 27.4038 19.1441 27.4313C19.0771 27.451 19.0083 27.4686 18.9413 27.4843C18.9374 27.4862 18.9336 27.4886 18.9276 27.4886C18.8608 27.5041 18.7937 27.52 18.7269 27.5318C18.7093 27.5357 18.6915 27.5398 18.6736 27.5417C18.6186 27.5516 18.5634 27.5612 18.5084 27.567C18.4296 27.5791 18.351 27.589 18.2724 27.5926C18.2449 27.5964 18.2191 27.5984 18.1916 27.5984C18.1286 27.6025 18.0659 27.6041 18.0049 27.6041H17.9992C17.9381 27.6041 17.8771 27.6022 17.8161 27.5984C17.7925 27.5984 17.7689 27.5962 17.7452 27.5926C17.69 27.5906 17.6331 27.5846 17.5743 27.5769C17.5624 27.5769 17.5487 27.575 17.5369 27.5728C17.4641 27.5632 17.3912 27.5513 17.3165 27.5376C17.2535 27.5277 17.1908 27.514 17.1257 27.4983C16.7893 27.4216 16.4431 27.3054 16.0929 27.1501C15.975 27.097 15.8551 27.042 15.7367 26.9791C15.554 26.8884 15.3709 26.7862 15.1898 26.6741C15.0382 26.5815 14.8867 26.4833 14.7375 26.3789C14.6625 26.3256 14.5879 26.2728 14.5129 26.2176C14.2788 26.0464 14.0468 25.8595 13.8185 25.6588C13.7555 25.6019 13.6928 25.5448 13.6296 25.4857C13.5667 25.4288 13.504 25.37 13.443 25.3126C13.2894 25.165 13.1401 25.0116 12.9945 24.8522C12.9376 24.7912 12.8804 24.7283 12.8233 24.6634C12.666 24.4867 12.5124 24.3036 12.367 24.1129C12.3099 24.0439 12.2568 23.9733 12.2035 23.9024C12.0051 23.6386 11.8162 23.3634 11.6388 23.0781C11.5917 23.0015 11.5445 22.9224 11.4991 22.8459C11.4444 22.7533 11.3911 22.659 11.3378 22.5643C11.1413 22.2103 10.9604 21.8428 10.8027 21.463C10.7791 21.4077 10.7555 21.3528 10.7359 21.2975C10.7043 21.2266 10.6768 21.1538 10.6513 21.0832C10.612 20.9787 10.5746 20.8746 10.5392 20.7702C10.5037 20.666 10.4704 20.5599 10.4369 20.4533C10.4051 20.3511 10.3757 20.2488 10.3484 20.1446C10.3168 20.0344 10.2874 19.9223 10.2618 19.808C10.2599 19.7962 10.256 19.7844 10.2539 19.7728C10.2167 19.6156 10.1832 19.4562 10.1536 19.2948C10.1143 19.0824 10.0829 18.8661 10.0593 18.6476C10.0494 18.5789 10.0434 18.5099 10.0376 18.4412C10.0296 18.3684 10.0236 18.2975 10.0197 18.2249C10.0101 18.0932 10.0041 17.9592 10.0002 17.8256C9.99827 17.739 9.99634 17.6524 9.99634 17.5658V12.7635C9.99634 11.6639 10.2184 10.6154 10.6199 9.66118C10.6296 9.63393 10.6414 9.60813 10.6532 9.58281C10.809 9.22278 10.9898 8.87626 11.1963 8.54589C11.2276 8.4926 11.2611 8.44148 11.2947 8.39036C12.7227 6.20295 15.1918 4.75705 17.9989 4.75488H18.0066C18.6165 4.75488 19.2107 4.82385 19.7812 4.95166C20.3023 5.06957 20.8039 5.23862 21.2801 5.45323C21.9291 5.74453 22.5331 6.11831 23.0759 6.56466C23.5327 6.93843 23.9474 7.35923 24.3094 7.82367C24.4512 8.00453 24.585 8.19141 24.7106 8.38433C24.7461 8.43762 24.7815 8.49067 24.8131 8.54565C25.0179 8.87409 25.2006 9.21844 25.3559 9.57823L25.3914 9.66094C25.7849 10.5954 26.0051 11.6183 26.0131 12.6923C26.0157 12.7162 26.0157 12.7401 26.0157 12.7635Z" fill="#ECC19C"/>
</g>
<mask id="mask4_72_1978" style="mask-type:luminance" maskUnits="userSpaceOnUse" x="0" y="0" width="36" height="37">
<path d="M-6.10352e-05 18.5004C-6.10352e-05 28.4415 8.0587 36.5002 17.9998 36.5002C27.9412 36.5002 35.9999 28.4415 35.9999 18.5004C35.9997 8.559 27.9409 0.5 17.9998 0.5C8.0587 0.5 -6.10352e-05 8.559 -6.10352e-05 18.5004Z" fill="white"/>
</mask>
<g mask="url(#mask4_72_1978)">
<path d="M19.9686 21.3738C19.9686 21.0386 19.0899 20.7671 18.0062 20.7671C16.9225 20.7671 16.044 21.0386 16.044 21.3738C16.044 21.7088 16.9225 21.9803 18.0062 21.9803C19.0899 21.98 19.9686 21.7085 19.9686 21.3738Z" fill="#ECC19C"/>
</g>
<mask id="mask5_72_1978" style="mask-type:luminance" maskUnits="userSpaceOnUse" x="0" y="0" width="36" height="37">
<path d="M-6.10352e-05 18.5004C-6.10352e-05 28.4415 8.0587 36.5002 17.9998 36.5002C27.9412 36.5002 35.9999 28.4415 35.9999 18.5004C35.9997 8.559 27.9409 0.5 17.9998 0.5C8.0587 0.5 -6.10352e-05 8.559 -6.10352e-05 18.5004Z" fill="white"/>
</mask>
<g mask="url(#mask5_72_1978)">
<path d="M24.7688 14.0572C24.7688 14.0248 24.7461 13.9966 24.7138 13.9928C24.4427 13.9511 23.2216 13.7842 21.9095 13.7842C20.4212 13.7842 18.5002 14.2508 18.1648 14.2508H17.867C17.7117 14.2508 17.2111 14.1502 16.5701 14.0422C15.8344 13.917 14.9152 13.7844 14.1225 13.7844C13.1613 13.7844 12.251 13.8753 11.7261 13.938C11.5327 13.9609 11.3923 13.9819 11.3185 13.9933C11.286 13.9971 11.2633 14.0253 11.2633 14.0576L11.2481 14.8577C11.2481 14.8862 11.265 14.9108 11.2898 14.9224L11.3807 14.9525C11.5155 15.0041 11.5042 17.4158 12.2228 18.0189C12.6494 18.3734 13.0304 18.5762 14.6323 18.5762C15.5597 18.5762 16.1438 18.3261 16.6972 17.579C17.0953 17.042 17.4501 15.7739 17.4501 15.7739C17.5523 15.2696 17.9181 15.2127 17.9999 15.205H18.0037H18.0093H18.0148C18.0281 15.205 18.4679 15.2127 18.582 15.7739C18.582 15.7739 18.9365 17.0423 19.3344 17.579C19.8883 18.3261 20.4723 18.5762 21.3993 18.5762C23.0014 18.5762 23.3827 18.3734 23.8092 18.0189C24.5276 17.4158 24.5165 15.0041 24.6511 14.9525L24.742 14.9224C24.7668 14.9108 24.7837 14.8864 24.7837 14.8577L24.7688 14.0572ZM16.6972 16.9108C16.4602 17.4684 15.8535 18.187 14.9964 18.2306C12.4273 18.3596 12.3094 17.6427 12.1427 17.0741C11.9759 16.5052 11.9325 16.0063 11.9985 15.4396C12.0649 14.8708 12.2091 14.537 12.4668 14.3702C12.5768 14.2961 12.6981 14.2301 13.0072 14.1825C13.2841 14.1428 13.7107 14.1179 14.4218 14.1179C14.8351 14.1179 15.22 14.1502 15.5648 14.205C16.4787 14.353 17.097 14.6639 17.097 14.9692C17.0973 15.1797 17.0442 16.0859 16.6972 16.9108ZM23.8891 17.0739C23.7222 17.6425 23.6045 18.3594 21.0354 18.2304C20.1781 18.1867 19.5697 17.4681 19.3344 16.9106C18.9876 16.0856 18.9345 15.1794 18.9345 14.9689C18.9345 14.5481 20.1046 14.1177 21.61 14.1177C23.1135 14.1177 23.3542 14.2298 23.5647 14.3699C23.8225 14.5365 23.9665 14.8703 24.033 15.4394C24.0996 16.0063 24.0559 16.505 23.8891 17.0739Z" fill="#1A1A1A"/>
</g>
<mask id="mask6_72_1978" style="mask-type:luminance" maskUnits="userSpaceOnUse" x="0" y="0" width="36" height="37">
<path d="M-6.10352e-05 18.5004C-6.10352e-05 28.4415 8.0587 36.5002 17.9998 36.5002C27.9412 36.5002 35.9999 28.4415 35.9999 18.5004C35.9997 8.559 27.9409 0.5 17.9998 0.5C8.0587 0.5 -6.10352e-05 8.559 -6.10352e-05 18.5004Z" fill="white"/>
</mask>
<g mask="url(#mask6_72_1978)">
<path d="M26.0333 9.65943C26.0314 9.65943 26.0314 9.66136 26.0295 9.66136H9.99658C9.99658 3.99811 13.8129 4.22599 17.9992 4.69236H18.0033C18.3001 4.72588 18.5991 4.75916 18.8981 4.79268C22.0301 5.14065 24.5795 3.7876 25.8563 2.58936C27.5933 3.8269 27.9022 8.39463 26.0333 9.65943Z" fill="#141720"/>
</g>
<mask id="mask7_72_1978" style="mask-type:luminance" maskUnits="userSpaceOnUse" x="0" y="0" width="36" height="37">
<path d="M-6.10352e-05 18.5004C-6.10352e-05 28.4415 8.0587 36.5002 17.9998 36.5002C27.9412 36.5002 35.9999 28.4415 35.9999 18.5004C35.9997 8.559 27.9409 0.5 17.9998 0.5C8.0587 0.5 -6.10352e-05 8.559 -6.10352e-05 18.5004Z" fill="white"/>
</mask>
<g mask="url(#mask7_72_1978)">
<path d="M12.79 9.32715L12.7468 9.46291C12.7251 9.52971 12.7034 9.59675 12.6798 9.66161C12.6603 9.71467 12.6426 9.76748 12.6209 9.8186C12.2532 10.8022 11.6964 11.7034 11.0137 12.5098C10.5339 13.0784 10.0518 13.9911 10.0026 15.3859C9.99875 15.4666 9.99683 15.5472 9.99683 15.6318V12.7637V9.66161L10.6542 9.583L11.2954 9.50608L12.0509 9.41565L12.79 9.32715Z" fill="#141720"/>
</g>
<mask id="mask8_72_1978" style="mask-type:luminance" maskUnits="userSpaceOnUse" x="0" y="0" width="36" height="37">
<path d="M-6.10352e-05 18.5004C-6.10352e-05 28.4415 8.0587 36.5002 17.9998 36.5002C27.9412 36.5002 35.9999 28.4415 35.9999 18.5004C35.9997 8.559 27.9409 0.5 17.9998 0.5C8.0587 0.5 -6.10352e-05 8.559 -6.10352e-05 18.5004Z" fill="white"/>
</mask>
<g mask="url(#mask8_72_1978)">
<path d="M26.0555 9.66211L23.2628 9.32861L23.3065 9.46365C23.6677 10.5879 24.2771 11.6081 25.0388 12.5105C25.5474 13.1129 26.0557 14.0989 26.0557 15.6338L26.0555 9.66211Z" fill="#141720"/>
</g>
<mask id="mask9_72_1978" style="mask-type:luminance" maskUnits="userSpaceOnUse" x="0" y="0" width="36" height="37">
<path d="M-6.10352e-05 18.5004C-6.10352e-05 28.4415 8.0587 36.5002 17.9998 36.5002C27.9412 36.5002 35.9999 28.4415 35.9999 18.5004C35.9997 8.559 27.9409 0.5 17.9998 0.5C8.0587 0.5 -6.10352e-05 8.559 -6.10352e-05 18.5004Z" fill="white"/>
</mask>
<g mask="url(#mask9_72_1978)">
<path d="M23.967 9.32871C23.967 9.95352 21.2951 10.4599 17.9992 10.4599C14.7032 10.4599 12.0314 9.95328 12.0314 9.32871C12.0314 8.70391 14.7032 8.19775 17.9992 8.19775C21.2951 8.19775 23.967 8.70415 23.967 9.32871Z" fill="#141720"/>
</g>
<mask id="mask10_72_1978" style="mask-type:luminance" maskUnits="userSpaceOnUse" x="0" y="0" width="36" height="37">
<path d="M-6.10352e-05 18.5004C-6.10352e-05 28.4415 8.0587 36.5002 17.9998 36.5002C27.9412 36.5002 35.9999 28.4415 35.9999 18.5004C35.9997 8.559 27.9409 0.5 17.9998 0.5C8.0587 0.5 -6.10352e-05 8.559 -6.10352e-05 18.5004Z" fill="white"/>
</mask>
<g mask="url(#mask10_72_1978)">
<path d="M17.9994 23.9375H16.9048L17.9994 26.1264L19.0937 23.9375H17.9994Z" fill="#141720"/>
</g>
</svg>
