<svg width="37" height="36" viewBox="0 0 37 36" fill="none" xmlns="http://www.w3.org/2000/svg">
<path fill-rule="evenodd" clip-rule="evenodd" d="M18.5 12.375C13.8401 12.375 10.0625 16.1526 10.0625 20.8125V26.4375C10.0625 31.0974 13.8401 34.875 18.5 34.875C23.1599 34.875 26.9375 31.0974 26.9375 26.4375V20.8125C26.9375 16.1526 23.1599 12.375 18.5 12.375ZM12.5454 19.125C13.1803 16.8802 15.0504 15.154 17.375 14.727V19.125H12.5454ZM19.625 14.727V19.125H24.4546C23.8197 16.8802 21.9496 15.154 19.625 14.727ZM12.3125 21.375H24.6875V26.4375C24.6875 29.8547 21.9172 32.625 18.5 32.625C15.0828 32.625 12.3125 29.8547 12.3125 26.4375V21.375Z" fill="url(#paint0_linear_46_2326)"/>
<path d="M10.8583 6.54244C15.0788 2.31919 21.9213 2.31919 26.1418 6.54244C26.581 6.98192 27.2933 6.98214 27.7328 6.54294C28.1723 6.10374 28.1725 5.39142 27.7333 4.95194C22.6339 -0.150646 14.3661 -0.150648 9.26675 4.95194C8.82755 5.39142 8.82778 6.10374 9.26726 6.54294C9.70674 6.98214 10.4191 6.98192 10.8583 6.54244Z" fill="url(#paint1_linear_46_2326)"/>
<path d="M13.0459 8.73111C16.0583 5.71678 20.942 5.71678 23.9544 8.73111C24.3936 9.17059 25.1059 9.17081 25.5454 8.73161C25.9849 8.29241 25.9851 7.58006 25.5459 7.14058C21.6547 3.24692 15.3456 3.24692 11.4544 7.14058C11.0152 7.58006 11.0154 8.29241 11.4549 8.73161C11.8944 9.17081 12.6067 9.17059 13.0459 8.73111Z" fill="url(#paint2_linear_46_2326)"/>
<path d="M15.2332 10.9206C17.0375 9.11516 19.9625 9.11516 21.7668 10.9206C22.206 11.3601 22.9183 11.3603 23.3578 10.9211C23.7972 10.4819 23.7975 9.76958 23.3583 9.3301C20.6752 6.64534 16.3248 6.64534 13.6418 9.3301C13.2026 9.76958 13.2028 10.4819 13.6423 10.9211C14.0817 11.3603 14.7941 11.3601 15.2332 10.9206Z" fill="url(#paint3_linear_46_2326)"/>
<defs>
<linearGradient id="paint0_linear_46_2326" x1="10.0625" y1="12.375" x2="27.4531" y2="12.7808" gradientUnits="userSpaceOnUse">
<stop stop-color="#5943EA"/>
<stop offset="1" stop-color="#05BBF8"/>
</linearGradient>
<linearGradient id="paint1_linear_46_2326" x1="8.9375" y1="1.125" x2="28.4484" y2="3.14507" gradientUnits="userSpaceOnUse">
<stop stop-color="#5943EA"/>
<stop offset="1" stop-color="#05BBF8"/>
</linearGradient>
<linearGradient id="paint2_linear_46_2326" x1="11.1251" y1="4.22034" x2="26.1986" y2="5.64941" gradientUnits="userSpaceOnUse">
<stop stop-color="#5943EA"/>
<stop offset="1" stop-color="#05BBF8"/>
</linearGradient>
<linearGradient id="paint3_linear_46_2326" x1="13.3125" y1="7.31653" x2="23.9388" y2="8.18848" gradientUnits="userSpaceOnUse">
<stop stop-color="#5943EA"/>
<stop offset="1" stop-color="#05BBF8"/>
</linearGradient>
</defs>
</svg>
