<svg width="20" height="20" viewBox="0 0 20 20" fill="none" xmlns="http://www.w3.org/2000/svg">
<path fill-rule="evenodd" clip-rule="evenodd" d="M10 6.875C7.41116 6.875 5.3125 8.97366 5.3125 11.5625V14.6875C5.3125 17.2763 7.41116 19.375 10 19.375C12.5888 19.375 14.6875 17.2763 14.6875 14.6875V11.5625C14.6875 8.97366 12.5888 6.875 10 6.875ZM6.69191 10.625C7.04463 9.37791 8.08353 8.41891 9.375 8.18169V10.625H6.69191ZM10.625 8.18169V10.625H13.3081C12.9554 9.37791 11.9165 8.41891 10.625 8.18169ZM6.5625 11.875H13.4375V14.6875C13.4375 16.586 11.8985 18.125 10 18.125C8.10153 18.125 6.5625 16.586 6.5625 14.6875V11.875Z" fill="#989C9F"/>
<path d="M5.75461 3.63469C8.09932 1.28844 11.9007 1.28844 14.2454 3.63469C14.4894 3.87884 14.8852 3.87897 15.1293 3.63497C15.3735 3.39097 15.3736 2.99523 15.1296 2.75108C12.2966 -0.0836922 7.70339 -0.0836931 4.87042 2.75108C4.62642 2.99523 4.62654 3.39097 4.8707 3.63497C5.11486 3.87897 5.51061 3.87884 5.75461 3.63469Z" fill="#C4CCC3"/>
<path d="M6.96994 4.85071C8.64347 3.17608 11.3567 3.17608 13.0302 4.85071C13.2742 5.09487 13.6699 5.09499 13.9141 4.85099C14.1582 4.60699 14.1584 4.21124 13.9144 3.96708C11.7526 1.80394 8.24753 1.80394 6.08575 3.96708C5.84175 4.21124 5.84188 4.60699 6.08603 4.85099C6.33019 5.09499 6.72594 5.09487 6.96994 4.85071Z" fill="#C4CCC3"/>
<path d="M8.18524 6.06673C9.18761 5.06369 10.8126 5.06369 11.815 6.06673C12.059 6.31088 12.4547 6.31101 12.6989 6.06701C12.943 5.82301 12.9431 5.42726 12.6991 5.1831C11.2086 3.69157 8.79168 3.69157 7.30108 5.1831C7.05708 5.42726 7.05721 5.82301 7.30136 6.06701C7.54552 6.31101 7.94127 6.31088 8.18524 6.06673Z" fill="#C4CCC3"/>
</svg>
