<svg width="44" height="44" viewBox="0 0 44 44" fill="none" xmlns="http://www.w3.org/2000/svg">
<path fill-rule="evenodd" clip-rule="evenodd" d="M22 15.125C16.3045 15.125 11.6875 19.742 11.6875 25.4375V32.3125C11.6875 38.008 16.3045 42.625 22 42.625C27.6955 42.625 32.3125 38.008 32.3125 32.3125V25.4375C32.3125 19.742 27.6955 15.125 22 15.125ZM14.7222 23.375C15.4982 20.6314 17.7838 18.5216 20.625 17.9997V23.375H14.7222ZM23.375 17.9997V23.375H29.2778C28.5018 20.6314 26.2162 18.5216 23.375 17.9997ZM14.4375 26.125H29.5625V32.3125C29.5625 36.4891 26.1766 39.875 22 39.875C17.8234 39.875 14.4375 36.4891 14.4375 32.3125V26.125Z" fill="#3D6DF1"/>
<path d="M12.6601 7.99631C17.8185 2.83457 26.1815 2.83457 31.3399 7.99631C31.8767 8.53346 32.7474 8.53373 33.2845 7.99693C33.8217 7.46013 33.8219 6.58952 33.2851 6.05237C27.0526 -0.184123 16.9475 -0.184125 10.7149 6.05237C10.1781 6.58952 10.1784 7.46013 10.7155 7.99693C11.2527 8.53373 12.1233 8.53346 12.6601 7.99631Z" fill="#3D6DF1"/>
<path d="M15.334 10.6714C19.0157 6.98719 24.9847 6.98719 28.6665 10.6714C29.2033 11.2085 30.074 11.2088 30.6111 10.672C31.1482 10.1352 31.1485 9.26453 30.6117 8.72739C25.8558 3.96847 18.1447 3.96847 13.3887 8.72739C12.8519 9.26453 12.8522 10.1352 13.3894 10.672C13.9265 11.2088 14.7972 11.2085 15.334 10.6714Z" fill="#3D6DF1"/>
<path d="M18.0072 13.3474C20.2125 11.1407 23.7875 11.1407 25.9927 13.3474C26.5295 13.8845 27.4001 13.8848 27.9372 13.348C28.4744 12.8112 28.4746 11.9406 27.9378 11.4034C24.6585 8.12204 19.3414 8.12204 16.0621 11.4034C15.5253 11.9406 15.5256 12.8112 16.0627 13.348C16.5999 13.8848 17.4705 13.8845 18.0072 13.3474Z" fill="#3D6DF1"/>
</svg>
