<svg width="28" height="28" viewBox="0 0 28 28" fill="none" xmlns="http://www.w3.org/2000/svg">
<path fill-rule="evenodd" clip-rule="evenodd" d="M10.2295 12.7407L7.57527 16.1663C8.5386 17.1175 9.62474 17.9954 10.8171 18.7851C11.2882 19.0971 11.3719 19.7657 10.9724 20.1653C10.6876 20.4501 10.2434 20.5026 9.90701 20.2812C7.96491 19.0025 6.26684 17.4963 4.88219 15.8094C2.35879 12.7354 0.875 9.0572 0.875 5.09078C0.875 4.72267 1.10541 4.39389 1.45145 4.2683L4.04792 3.32583C6.17457 2.55389 8.53873 3.53095 9.5004 5.57886L10.7313 8.20014C11.4299 9.68781 11.2361 11.4416 10.2295 12.7407ZM4.64502 4.97082C5.92077 4.50773 7.33928 5.09376 7.91639 6.32269L9.14729 8.94398C9.56655 9.83678 9.45022 10.8893 8.84616 11.6689L6.37114 14.8632C6.32533 14.8087 6.27992 14.754 6.23486 14.6991C4.06826 12.0597 2.7802 8.98287 2.63814 5.69926L4.64502 4.97082Z" fill="#FDFFFD"/>
<path fill-rule="evenodd" clip-rule="evenodd" d="M12.0601 21.5521C12.4303 21.7475 12.8073 21.9354 13.1906 22.1155C17.0114 23.91 21.4813 24.9372 26.2501 24.9372C26.7334 24.9372 27.1251 24.5455 27.1251 24.0622V21.2866C27.1251 19.3305 25.8271 17.6119 23.9456 17.0773L20.6164 16.1315C19.0739 15.6932 17.4154 16.1341 16.2939 17.2804C14.8859 18.7196 13.4781 20.1341 12.0601 21.5521ZM25.3751 23.175C21.652 23.071 18.1543 22.3059 15.0712 21.0326L17.5449 18.5042C18.2177 17.8164 19.2128 17.5519 20.1381 17.8149L23.4673 18.7607C24.5961 19.0814 25.3751 20.1126 25.3751 21.2866V23.175Z" fill="#FDFFFD"/>
</svg>
