<svg width="34" height="34" viewBox="0 0 34 34" fill="none" xmlns="http://www.w3.org/2000/svg">
<path fill-rule="evenodd" clip-rule="evenodd" d="M0 5.66667C0 4.16377 0.597022 2.72243 1.65973 1.65973C2.72243 0.597022 4.16377 0 5.66667 0H28.3333C29.8362 0 31.2776 0.597022 32.3403 1.65973C33.403 2.72243 34 4.16377 34 5.66667V28.3333C34 29.8362 33.403 31.2776 32.3403 32.3403C31.2776 33.403 29.8362 34 28.3333 34H5.66667C4.16377 34 2.72243 33.403 1.65973 32.3403C0.597022 31.2776 0 29.8362 0 28.3333V5.66667ZM29.75 21.8365C29.7499 21.4615 29.6012 21.1018 29.3363 20.8363L26.503 18.003C26.3714 17.8711 26.2151 17.7664 26.043 17.695C25.8708 17.6236 25.6863 17.5868 25.5 17.5868C25.3137 17.5868 25.1292 17.6236 24.957 17.695C24.7849 17.7664 24.6286 17.8711 24.497 18.003L20.8363 21.6637C20.7047 21.7956 20.5484 21.9003 20.3763 21.9717C20.2042 22.0431 20.0197 22.0799 19.8333 22.0799C19.647 22.0799 19.4625 22.0431 19.2904 21.9717C19.1183 21.9003 18.9619 21.7956 18.8303 21.6637L12.3363 15.1697C12.2047 15.0377 12.0484 14.9331 11.8763 14.8616C11.7042 14.7902 11.5197 14.7535 11.3333 14.7535C11.147 14.7535 10.9625 14.7902 10.7904 14.8616C10.6183 14.9331 10.4619 15.0377 10.3303 15.1697L4.66367 20.8363C4.39884 21.1018 4.25008 21.4615 4.25 21.8365V28.3333C4.25 28.7091 4.39926 29.0694 4.66493 29.3351C4.93061 29.6007 5.29094 29.75 5.66667 29.75H28.3333C28.7091 29.75 29.0694 29.6007 29.3351 29.3351C29.6007 29.0694 29.75 28.7091 29.75 28.3333V21.8365ZM28.3333 8.5C28.3333 9.25145 28.0348 9.97212 27.5035 10.5035C26.9721 11.0348 26.2514 11.3333 25.5 11.3333C24.7486 11.3333 24.0279 11.0348 23.4965 10.5035C22.9652 9.97212 22.6667 9.25145 22.6667 8.5C22.6667 7.74855 22.9652 7.02788 23.4965 6.49653C24.0279 5.96518 24.7486 5.66667 25.5 5.66667C26.2514 5.66667 26.9721 5.96518 27.5035 6.49653C28.0348 7.02788 28.3333 7.74855 28.3333 8.5Z" fill="url(#paint0_linear_46_1500)"/>
<defs>
<linearGradient id="paint0_linear_46_1500" x1="0" y1="0" x2="35.0239" y2="1.0897" gradientUnits="userSpaceOnUse">
<stop stop-color="#5943EA"/>
<stop offset="1" stop-color="#05BBF8"/>
</linearGradient>
</defs>
</svg>
