<svg width="20" height="20" viewBox="0 0 20 20" fill="none" xmlns="http://www.w3.org/2000/svg">
<g clip-path="url(#clip0_10232_75)">
<path fill-rule="evenodd" clip-rule="evenodd" d="M0.625 10C0.625 4.82234 4.82234 0.625 10 0.625C15.1777 0.625 19.375 4.82234 19.375 10C19.375 15.1777 15.1777 19.375 10 19.375C7.91616 19.375 5.83359 19.3731 3.75056 19.375C3.58472 19.3752 3.42559 19.3094 3.30825 19.1922C3.19094 19.0749 3.125 18.9159 3.125 18.75V16.3738C1.5741 14.7017 0.625 12.4611 0.625 10ZM10 1.875C5.51269 1.875 1.875 5.51269 1.875 10C1.875 12.2141 2.75975 14.2202 4.19641 15.6863C4.31087 15.8031 4.375 15.9602 4.375 16.1237V18.1245C6.25016 18.1234 8.12581 18.125 10 18.125C14.4873 18.125 18.125 14.4873 18.125 10C18.125 5.51269 14.4873 1.875 10 1.875Z" fill="#989C9F"/>
<path d="M10 15C10 15.3452 9.72019 15.625 9.375 15.625C9.02981 15.625 8.75 15.3452 8.75 15C8.75 14.6548 9.02981 14.375 9.375 14.375C9.72019 14.375 10 14.6548 10 15Z" fill="#989C9F"/>
<path d="M7.8125 8.375C7.8125 7.20141 8.76391 6.25 9.9375 6.25H10C11.2051 6.25 12.1875 7.23675 12.1875 8.44787C12.1875 9.6705 11.1958 10.6667 9.97916 10.6667H9.375C9.02981 10.6667 8.75 10.9465 8.75 11.2917V13.125C8.75 13.4702 9.02981 13.75 9.375 13.75C9.72019 13.75 10 13.4702 10 13.125V11.9166C11.9033 11.9053 13.4375 10.3479 13.4375 8.44787C13.4375 6.55241 11.9015 5 10 5H9.9375C8.07353 5 6.5625 6.51103 6.5625 8.375C6.5625 8.72019 6.84231 9 7.1875 9C7.53269 9 7.8125 8.72019 7.8125 8.375Z" fill="#989C9F"/>
</g>
<defs>
<clipPath id="clip0_10232_75">
<rect width="20" height="20" fill="white"/>
</clipPath>
</defs>
</svg>
