<svg width="32" height="32" viewBox="0 0 32 32" fill="none" xmlns="http://www.w3.org/2000/svg">
<path d="M11.1172 16H6.23438V12.0938C6.23438 9.93919 7.98606 8.1875 10.1406 8.1875H10.6289C11.4406 8.1875 12.0938 7.53444 12.0938 6.72262V3.793C12.0938 2.98125 11.4407 2.32812 10.6289 2.32812H10.1406C4.74512 2.32812 0.375 6.69825 0.375 12.0938V26.7422C0.375 28.3596 1.68725 29.6719 3.30469 29.6719H11.1172C12.7346 29.6719 14.0469 28.3596 14.0469 26.7422V18.9297C14.0469 17.3123 12.7346 16 11.1172 16Z" fill="#778874"/>
<path d="M28.6953 16H23.8125V12.0938C23.8125 9.93919 25.5642 8.1875 27.7188 8.1875H28.207C29.0188 8.1875 29.6719 7.53444 29.6719 6.72262V3.793C29.6719 2.98125 29.0188 2.32812 28.207 2.32812H27.7188C22.3232 2.32812 17.9531 6.69825 17.9531 12.0938V26.7422C17.9531 28.3596 19.2654 29.6719 20.8828 29.6719H28.6953C30.3127 29.6719 31.625 28.3596 31.625 26.7422V18.9297C31.625 17.3123 30.3127 16 28.6953 16Z" fill="#778874"/>
</svg>
