<svg width="20" height="20" viewBox="0 0 20 20" fill="none" xmlns="http://www.w3.org/2000/svg">
<g clip-path="url(#clip0_10232_20)">
<path fill-rule="evenodd" clip-rule="evenodd" d="M9.68712 10.625H4.23584V9.375H9.68712C10.0323 9.375 10.3121 9.65481 10.3121 10C10.3121 10.3452 10.0323 10.625 9.68712 10.625Z" fill="#C4CCC3"/>
<path fill-rule="evenodd" clip-rule="evenodd" d="M3.12671 1.97182C2.4083 1.61274 1.63376 2.34437 1.94953 3.08093L4.81043 9.75404C4.87783 9.91129 4.87783 10.0893 4.81043 10.2466L1.94953 16.9197C1.63376 17.6563 2.4083 18.3879 3.12671 18.0288L17.6486 10.7704C18.2835 10.453 18.2835 9.54761 17.6486 9.23029L3.12671 1.97182ZM0.800658 3.57348C0.0254819 1.76534 1.92689 -0.0253368 3.68558 0.853707L18.2075 8.11217C19.7639 8.89011 19.7639 11.1105 18.2075 11.8885L3.68558 19.147C1.9269 20.026 0.0254787 18.2353 0.800658 16.4272L3.55596 10.0003L0.800658 3.57348Z" fill="#989C9F"/>
</g>
<defs>
<clipPath id="clip0_10232_20">
<rect width="20" height="20" fill="white"/>
</clipPath>
</defs>
</svg>
