<svg width="24" height="24" viewBox="0 0 24 24" fill="none" xmlns="http://www.w3.org/2000/svg">
<g clip-path="url(#clip0_10021_182)">
<path d="M9 4.875C9 4.46078 8.66422 4.125 8.25 4.125C7.83578 4.125 7.5 4.46078 7.5 4.875C7.5 7.36028 9.51472 9.375 12 9.375C14.4853 9.375 16.5 7.36028 16.5 4.875C16.5 4.46078 16.1642 4.125 15.75 4.125C15.3358 4.125 15 4.46078 15 4.875C15 6.53186 13.6569 7.875 12 7.875C10.3431 7.875 9 6.53186 9 4.875Z" fill="#FDFFFD"/>
<path fill-rule="evenodd" clip-rule="evenodd" d="M6.99102 0.75C4.70566 0.75 2.76676 2.43452 2.48272 4.69395L0.785567 18.194C0.446804 20.8886 2.57172 23.25 5.29388 23.25H18.7065C21.4287 23.25 23.5536 20.8886 23.2148 18.194L21.5177 4.69395C21.2336 2.43453 19.2947 0.75 17.0094 0.75H6.99102ZM3.97099 4.88104C4.15909 3.3849 5.44846 2.25 6.99102 2.25H17.0094C18.5519 2.25 19.8413 3.38491 20.0294 4.88104L21.7265 18.381C21.9503 20.1611 20.5454 21.75 18.7065 21.75H5.29388C3.45505 21.75 2.05008 20.161 2.27385 18.381L3.97099 4.88104Z" fill="#FDFFFD"/>
</g>
<defs>
<clipPath id="clip0_10021_182">
<rect width="24" height="24" fill="white"/>
</clipPath>
</defs>
</svg>
