<svg width="22" height="20" viewBox="0 0 22 20" fill="none" xmlns="http://www.w3.org/2000/svg">
<g clip-path="url(#clip0_47_479)">
<path d="M8.75497 4.24961C8.75497 3.90848 8.46082 3.63196 8.09795 3.63196C7.73507 3.63196 7.44092 3.90848 7.44092 4.24961C7.44092 6.2963 9.20589 7.95549 11.3831 7.95549C13.5603 7.95549 15.3252 6.2963 15.3252 4.24961C15.3252 3.90848 15.0311 3.63196 14.6682 3.63196C14.3053 3.63196 14.0112 3.90848 14.0112 4.24961C14.0112 5.61408 12.8346 6.72019 11.3831 6.72019C9.93161 6.72019 8.75497 5.61408 8.75497 4.24961Z" fill="#CBBBA1"/>
<path fill-rule="evenodd" clip-rule="evenodd" d="M6.99519 0.852539C4.99313 0.852539 3.29459 2.23979 3.04576 4.1005L1.55899 15.2181C1.26222 17.4373 3.12373 19.382 5.50844 19.382H17.2584C19.6431 19.382 21.5046 17.4373 21.2078 15.2181L19.7211 4.1005C19.4722 2.2398 17.7737 0.852539 15.7716 0.852539H6.99519ZM4.34954 4.25457C4.51432 3.02246 5.64385 2.08783 6.99519 2.08783H15.7716C17.123 2.08783 18.2525 3.02246 18.4173 4.25457L19.904 15.3722C20.1001 16.8381 18.8693 18.1467 17.2584 18.1467H5.50844C3.89755 18.1467 2.66675 16.8381 2.86278 15.3722L4.34954 4.25457Z" fill="white"/>
</g>
<defs>
<clipPath id="clip0_47_479">
<rect width="21.0249" height="19.7647" fill="white" transform="translate(0.870728 0.235352)"/>
</clipPath>
</defs>
</svg>
