<svg width="20" height="20" viewBox="0 0 20 20" fill="none" xmlns="http://www.w3.org/2000/svg">
<path fill-rule="evenodd" clip-rule="evenodd" d="M18.125 9.375C18.125 8.51206 17.4254 7.8125 16.5625 7.8125V6.5625C18.1158 6.5625 19.375 7.82169 19.375 9.375C19.375 10.9283 18.1158 12.1875 16.5625 12.1875V10.9375C17.4254 10.9375 18.125 10.2379 18.125 9.375Z" fill="#C4CCC3"/>
<path fill-rule="evenodd" clip-rule="evenodd" d="M13.1985 2.48501C14.8638 1.59706 16.875 2.80351 16.875 4.69041V14.0633C16.875 15.9502 14.8638 17.1567 13.1985 16.2687L7.27022 13.1077C7.24288 13.0931 7.21531 13.079 7.1875 13.0655V16.0941C7.1875 17.0432 6.418 17.8125 5.46875 17.8125C4.5195 17.8125 3.75 17.0432 3.75 16.0941V12.7996C1.99797 12.6417 0.625 11.1696 0.625 9.37687C0.625 7.47881 2.16402 5.94012 4.0625 5.94012H6.09375C6.50409 5.94012 6.90816 5.83912 7.27022 5.64606L13.1985 2.48501ZM5 12.8136H5.9375V16.0941C5.9375 16.353 5.72762 16.5628 5.46875 16.5628C5.20988 16.5628 5 16.353 5 16.0941V12.8136ZM15.625 4.69041C15.625 3.74697 14.6194 3.14372 13.7867 3.58769L7.85847 6.74878C7.64356 6.86334 7.41881 6.95631 7.1875 7.02684V11.7269C7.41881 11.7974 7.64356 11.8904 7.85847 12.005L13.7867 15.166C14.6194 15.61 15.625 15.0068 15.625 14.0633V4.69041ZM5.9375 11.5639H4.0625C2.85438 11.5639 1.875 10.5847 1.875 9.37687C1.875 8.169 2.85438 7.18984 4.0625 7.18984H5.9375V11.5639Z" fill="#989C9F"/>
</svg>
