<svg width="20" height="20" viewBox="0 0 20 20" fill="none" xmlns="http://www.w3.org/2000/svg">
<path fill-rule="evenodd" clip-rule="evenodd" d="M6.66683 9.16699C6.24024 9.16699 5.8335 9.47758 5.8335 9.90416V13.3337C5.8335 16.0951 8.07207 18.3337 10.8335 18.3337C13.3428 18.3337 15.4204 16.4852 15.7788 14.0756C17.2442 13.7249 18.3335 12.4065 18.3335 10.8337C18.3335 8.99274 16.8411 7.50033 15.0002 7.50033C13.1592 7.50033 11.6668 8.99274 11.6668 10.8337C11.6668 12.3596 12.6922 13.6461 14.0915 14.0417C13.7669 15.5425 12.4315 16.667 10.8335 16.667C8.99258 16.667 7.50016 15.1746 7.50016 13.3337V10.7645C9.86491 10.3678 11.6668 8.31116 11.6668 5.83366V2.50033C11.6668 2.04009 11.2937 1.66699 10.8335 1.66699H9.16683C8.70658 1.66699 8.3335 2.04009 8.3335 2.50033C8.3335 2.96056 8.70658 3.33366 9.16683 3.33366H10.0002V5.83366C10.0002 7.67461 8.50775 9.16699 6.66683 9.16699ZM15.0002 9.16699C15.9207 9.16699 16.6668 9.91316 16.6668 10.8337C16.6668 11.7542 15.9207 12.5003 15.0002 12.5003C14.0797 12.5003 13.3335 11.7542 13.3335 10.8337C13.3335 9.91316 14.0797 9.16699 15.0002 9.16699Z" fill="#989C9F"/>
<path d="M2.49984 1.66699C2.0396 1.66699 1.6665 2.04009 1.6665 2.50033V5.83366C1.6665 7.54851 2.5298 9.06174 3.8455 9.96241C4.36842 10.3204 4.99984 9.88441 4.99984 9.25066C4.99984 8.92291 4.81854 8.62749 4.56428 8.42066C3.81306 7.80945 3.33317 6.87759 3.33317 5.83366V3.33366H4.1665C4.62674 3.33366 4.99984 2.96056 4.99984 2.50033C4.99984 2.04009 4.62674 1.66699 4.1665 1.66699H2.49984Z" fill="#C4CCC3"/>
</svg>
