<svg width="61" height="60" viewBox="0 0 61 60" fill="none" xmlns="http://www.w3.org/2000/svg">
<g clip-path="url(#clip0_46_2224)">
<path d="M44.8369 56.4844H38.8924L37.1346 52.9689H24.4148L22.657 56.4844H16.7124C15.7408 56.4844 14.9546 57.2706 14.9546 58.2422C14.9546 59.2138 15.7408 60 16.7124 60H44.8369C45.8085 60 46.5947 59.2138 46.5947 58.2422C46.5946 57.2706 45.8085 56.4844 44.8369 56.4844Z" fill="white"/>
<path d="M0.891922 42.4219V44.1797C0.891922 47.0875 3.25746 49.453 6.16523 49.453H55.5C58.4078 49.453 60.7733 47.0875 60.7733 44.1797V42.4219H0.891922Z" fill="white"/>
<path d="M55.5 7.03249H36.402L39.2676 2.73418C39.8066 1.92571 39.5886 0.835631 38.7801 0.29657C37.9681 -0.244132 36.8781 -0.024406 36.3425 0.784069L32.1771 7.03238H29.3709L25.2054 0.784186C24.6663 -0.0242889 23.5763 -0.244015 22.7677 0.296687C21.9593 0.835749 21.7412 1.92571 22.2802 2.7343L25.1458 7.03261H6.16523C3.25746 7.03261 0.891922 9.39815 0.891922 12.3059V14.0637H60.7733V12.3059C60.7733 9.39804 58.4078 7.03249 55.5 7.03249Z" fill="white"/>
<path d="M60.7733 17.5791H0.891922V38.9067H60.7733V17.5791Z" fill="#BEE0F4"/>
</g>
<defs>
<clipPath id="clip0_46_2224">
<rect width="60" height="60" fill="white" transform="translate(0.833328)"/>
</clipPath>
</defs>
</svg>
