<svg width="56" height="36" viewBox="0 0 56 36" fill="none" xmlns="http://www.w3.org/2000/svg">
<path d="M44.7574 14.4844C44.0153 14.4844 43.2866 14.5599 42.5752 14.7096C41.027 6.53897 33.8305 0.421875 25.3047 0.421875C16.7056 0.421875 9.42258 6.63419 7.982 14.9984C3.69229 16.3891 0.695312 20.4225 0.695312 25.0313C0.695312 30.8467 5.42676 35.5781 11.2422 35.5781H44.7574C50.5732 35.5781 55.3042 30.8467 55.3042 25.0313C55.3042 19.2154 50.5732 14.4844 44.7574 14.4844ZM31.4735 21.2703L22.5673 26.5437C21.4004 27.2349 19.9141 26.3926 19.9141 25.0313V14.4844C19.9141 13.1248 21.3968 12.2784 22.5673 12.9719L31.4735 18.2454C32.6207 18.9242 32.6225 20.59 31.4735 21.2703Z" fill="#3D6DF1"/>
</svg>
