<svg width="18" height="18" viewBox="0 0 18 18" fill="none" xmlns="http://www.w3.org/2000/svg">
<path fill-rule="evenodd" clip-rule="evenodd" d="M4.2205 4.00033L4.71395 2.4213C5.0401 1.37762 6.00669 0.666992 7.10015 0.666992H10.8995C11.993 0.666992 12.9596 1.37762 13.2858 2.4213L13.7792 4.00033H14.8332C16.2139 4.00033 17.3332 5.11962 17.3332 6.50033V14.8337C17.3332 16.2144 16.2139 17.3337 14.8332 17.3337H3.1665C1.7858 17.3337 0.666504 16.2144 0.666504 14.8337V6.50033C0.666504 5.11962 1.7858 4.00033 3.1665 4.00033H4.2205ZM12.033 4.00033L11.6949 2.91843C11.5862 2.57053 11.264 2.33366 10.8995 2.33366H7.10015C6.73566 2.33366 6.41347 2.57053 6.30475 2.91843L5.96665 4.00033H12.033ZM3.1665 5.66699C2.70627 5.66699 2.33317 6.04009 2.33317 6.50033V14.8337C2.33317 15.2939 2.70627 15.667 3.1665 15.667H14.8332C15.2934 15.667 15.6665 15.2939 15.6665 14.8337V6.50033C15.6665 6.04009 15.2934 5.66699 14.8332 5.66699H3.1665Z" fill="#989C9F"/>
</svg>
